<svg width="22" height="18" viewBox="0 0 22 18" fill="none" xmlns="http://www.w3.org/2000/svg">
<path d="M20.2659 17.998H1.73288C1.37562 17.998 1.04551 17.8074 0.866878 17.498C0.688252 17.1886 0.688254 16.8074 0.866885 16.498L10.1329 0.497992C10.3117 0.189104 10.6415 -0.00109863 10.9984 -0.00109863C11.3553 -0.00109863 11.6851 0.189104 11.8639 0.497992L21.1299 16.498C21.3084 16.8072 21.3085 17.1882 21.1301 17.4975C20.9518 17.8069 20.622 17.9976 20.2649 17.998H20.2659ZM10.9999 2.99799L3.46888 15.998H18.5329L10.9999 2.99799ZM11.9949 11.999H9.99488V6.99799H11.9949V11.999Z" fill="#0083C7"/>
<path d="M9.99988 13H11.9999V15H9.99988V13Z" fill="#0083C7"/>
</svg>
