<svg width="19" height="21" viewBox="0 0 19 21" fill="none" xmlns="http://www.w3.org/2000/svg">
<path d="M4.81959 15.8933C4.36163 16.1845 4.23241 16.7866 4.45529 17.2814C4.85688 18.1729 4.97217 18.9589 5.00527 19.7625C5.02771 20.3075 5.46075 20.75 6.00618 20.75C6.55161 20.75 7.0012 20.3078 6.98152 19.7627C6.94359 18.7118 6.78818 17.556 6.15152 16.2349C5.91155 15.737 5.28604 15.5968 4.81959 15.8933ZM14.4046 2.11378C11.909 0.634941 5.56177 -0.350287 2.33334 3.03293C-0.992854 6.51827 0.112257 12.1162 2.33433 14.4391C2.45087 14.5613 2.5753 14.6684 2.69875 14.7726C2.81267 14.8704 2.99317 14.8738 3.10465 14.7732L3.95341 14.0071C4.18678 13.7965 4.20644 13.4324 3.96286 13.2336C3.89176 13.1736 3.81868 13.1145 3.75152 13.0454C2.11212 11.3323 1.27662 7.0209 3.75251 4.42666C6.24617 1.81241 11.7204 2.84569 13.4082 3.84494C15.1279 4.86153 16.3163 6.36869 16.944 7.31258C17.2525 7.77644 17.8762 7.97535 18.3731 7.72336C18.8515 7.48068 19.0408 6.90597 18.7545 6.4522C18.0634 5.35655 16.6223 3.42469 14.4046 2.11378Z" fill="#0083C7"/>
<path d="M7.3295 11.5605C6.31229 10.299 5.56468 9.24065 5.95478 8.05017C6.21452 7.26419 6.75769 6.72352 7.57146 6.44417C8.4859 6.13363 9.66709 6.20125 10.667 6.58245C11.186 6.78033 11.8141 6.66853 12.1231 6.20699C12.4265 5.75396 12.3112 5.13411 11.8182 4.90119C10.2988 4.18332 8.44204 4.03242 6.93842 4.54781C5.54789 5.0244 4.53364 6.04467 4.08231 7.41738C3.31594 9.74829 4.8714 11.6767 5.80072 12.8291C5.94787 13.0124 6.08712 13.1836 6.20464 13.3418C8.48904 16.4215 8.8856 18.1774 8.95444 19.7628C8.9781 20.3077 9.41106 20.75 9.95649 20.75C10.5019 20.75 10.9515 20.3077 10.9318 19.7626C10.8661 17.937 10.4475 15.7302 7.78281 12.1383C7.63527 11.9428 7.48414 11.7502 7.3295 11.5605ZM13.7244 7.50009C13.3497 7.89501 13.3664 8.51479 13.7125 8.93503C15.0276 10.5322 15.9701 12.7618 16.6842 15.9505C16.804 16.4853 17.3263 16.835 17.8634 16.7253C18.396 16.6166 18.7421 16.097 18.6241 15.5664C17.8155 11.9287 16.7028 9.37367 15.1071 7.50437C14.747 7.08245 14.1062 7.09766 13.7244 7.50009Z" fill="#0083C7"/>
<path d="M10.3073 8.54562C9.8923 8.16749 9.26452 8.28561 8.95442 8.75366C8.65457 9.20626 8.76367 9.81974 9.15469 10.1964C9.91514 10.9288 11.0946 12.3039 11.8616 14.3495C12.0541 14.8632 12.6001 15.1729 13.1273 15.0215C13.6495 14.8715 13.956 14.3258 13.7729 13.8144C12.8125 11.1315 11.2491 9.40371 10.3073 8.54562ZM13.5786 17.0282C13.0435 17.1258 12.6906 17.6372 12.7592 18.1767C12.826 18.7016 12.8716 19.2283 12.8965 19.7627C12.9219 20.3076 13.3614 20.75 13.9069 20.75C14.4523 20.75 14.8969 20.3076 14.8738 19.7627C14.8462 19.1115 14.7909 18.4709 14.707 17.8316C14.6358 17.2886 14.1174 16.93 13.5786 17.0282Z" fill="#0083C7"/>
</svg>
