<svg width="32" height="32" viewBox="0 0 32 32" fill="none" xmlns="http://www.w3.org/2000/svg">
<path d="M0 16C0 7.16344 7.16344 0 16 0C24.8366 0 32 7.16344 32 16C32 24.8366 24.8366 32 16 32C7.16344 32 0 24.8366 0 16Z" fill="#272626"/>
<path d="M11.8571 14.2976L16 10.1547L20.1451 14.2998L22.5557 11.8891L16 5.33337L9.44641 11.887L11.8571 14.2976Z" fill="#FFC500"/>
<path d="M18.4448 15.9979H18.4459L16 13.5531L14.192 15.36L13.984 15.568L13.5563 15.9968L13.552 16L13.5563 16.0032L15.9989 18.447L18.4459 16.0011L18.4469 16L18.4448 15.999V15.9979Z" fill="#FFC500"/>
<path d="M11.8571 17.7024L9.44321 20.1099L9.44641 20.1131L16 26.6667L22.5557 20.111V20.1099L20.1451 17.6992L16 21.8454L11.8571 17.7024Z" fill="#FFC500"/>
<path d="M5.33334 16L7.74401 18.4107L10.1547 16L7.74401 13.5894L5.33334 16Z" fill="#FFC500"/>
<path d="M21.8453 16L24.256 18.4107L26.6667 16L24.256 13.5894L21.8453 16Z" fill="#FFC500"/>
</svg>
