<svg width="21" height="16" viewBox="0 0 21 16" fill="none" xmlns="http://www.w3.org/2000/svg">
<path d="M18.668 16.0009H2.66797C1.59848 16.0329 0.704385 15.1943 0.667969 14.1249V1.87592C0.704382 0.806725 1.59865 -0.0316533 2.66797 0.000917777H18.668C19.7373 -0.0316533 20.6316 0.806725 20.668 1.87592V14.1259C20.631 15.1949 19.7371 16.0329 18.668 16.0009ZM2.66797 2.00092V13.9899L18.668 14.0009V2.01192L2.66797 2.00092ZM12.098 12.0009H4.66797C4.74149 11.173 5.13331 10.4058 5.76097 9.86092C6.45979 9.16763 7.39878 8.77012 8.38297 8.75092C9.36716 8.77012 10.3061 9.16763 11.005 9.86092C11.6325 10.406 12.0242 11.173 12.098 12.0009ZM16.668 11.0009H13.668V9.00092H16.668V11.0009ZM8.38297 8.00092C7.84704 8.01954 7.32744 7.81481 6.94826 7.43563C6.56907 7.05644 6.36435 6.53684 6.38297 6.00092C6.36465 5.46508 6.56947 4.94565 6.94859 4.56654C7.3277 4.18742 7.84713 3.98259 8.38297 4.00092C8.91881 3.98259 9.43823 4.18742 9.81735 4.56654C10.1965 4.94565 10.4013 5.46508 10.383 6.00092C10.4016 6.53684 10.1969 7.05644 9.81768 7.43563C9.43849 7.81481 8.91889 8.01954 8.38297 8.00092ZM16.668 7.00092H12.668V5.00092H16.668V7.00092Z" fill="#0083C7"/>
</svg>
