<svg width="24" height="24" viewBox="0 0 24 24" fill="none" xmlns="http://www.w3.org/2000/svg">
<path d="M0 12C0 5.37258 5.37258 0 12 0V0C18.6274 0 24 5.37258 24 12V12C24 18.6274 18.6274 24 12 24V24C5.37258 24 0 18.6274 0 12V12Z" fill="#1C60DD"/>
<g clip-path="url(#clip0_16334_1255)">
<path opacity="0.5" fill-rule="evenodd" clip-rule="evenodd" d="M7.25366 10.3888L7.68 8.53441L10.6826 6.55859V9.03411L7.25366 11.491V10.3888Z" fill="white"/>
<path opacity="0.7" fill-rule="evenodd" clip-rule="evenodd" d="M8.6748 10.4522L12.056 8.0625V10.025C12.056 10.025 12.0046 10.6728 11.7574 10.7934C11.5747 10.8782 8.67571 12.8279 8.67571 12.8279L8.6748 10.4522Z" fill="white"/>
<path opacity="0.9" fill-rule="evenodd" clip-rule="evenodd" d="M10.5164 11.6111L13.5221 9.59766V11.5599C13.5221 11.5599 13.5221 12.1024 13.2236 12.2932C13.0309 12.4103 10.517 14.0733 10.517 14.0733L10.5164 11.6111Z" fill="white"/>
<path opacity="0.5" fill-rule="evenodd" clip-rule="evenodd" d="M11.762 5.85552L13.4146 4.64453V7.11877L11.7635 8.26728L11.762 5.85552Z" fill="white"/>
<path opacity="0.7" fill-rule="evenodd" clip-rule="evenodd" d="M13.1076 7.32978L14.7684 6.21484V8.77618L13.1069 9.87294L13.1076 7.32978Z" fill="white"/>
<path opacity="0.5" fill-rule="evenodd" clip-rule="evenodd" d="M14.3811 3.9858L15.512 3.19922V4.90558C15.512 4.90558 15.512 5.75927 15.2135 5.93011C15.156 5.96469 14.3872 6.47337 14.3872 6.47337L14.3811 3.9858Z" fill="white"/>
<path opacity="0.9" fill-rule="evenodd" clip-rule="evenodd" d="M14.4108 8.98326L15.5375 8.21484L15.5116 10.1756C15.5116 10.1756 15.5375 10.6927 15.213 10.9439C15.1382 11.0195 14.3709 11.4442 14.3845 11.4526C14.398 11.4611 14.4063 8.91385 14.4108 8.98326Z" fill="white"/>
<path opacity="0.7" fill-rule="evenodd" clip-rule="evenodd" d="M15.7373 5.58839L16.6387 4.91016C16.6387 4.91016 16.6477 5.92751 16.6387 6.61677C16.632 6.82613 16.589 7.03194 16.5122 7.22234C16.4354 7.41274 16.3262 7.58406 16.1909 7.72634C16.1909 7.72634 15.7247 8.05623 15.7389 8.06545C15.7531 8.07467 15.7373 5.58839 15.7373 5.58839Z" fill="white"/>
<path fill-rule="evenodd" clip-rule="evenodd" d="M10.6828 6.55469C10.6688 6.58799 7.92624 8.13503 7.51049 8.66574C7.72253 8.46236 7.33022 8.86656 7.28516 9.47538L7.41563 15.1971C7.41563 15.1971 7.20606 16.1873 8.2363 16.8604C8.9709 17.3405 13.2199 20.0824 13.7415 20.3613C14.2632 20.6402 14.3977 20.1994 14.3977 20.1994V14.6457C14.3864 14.6306 14.5534 13.7682 13.6593 13.1178C13.4876 12.9483 7.9819 10.0978 7.748 9.20029C7.49675 8.23644 10.6828 6.80391 10.6828 6.55469Z" fill="#95BAFF"/>
<path fill-rule="evenodd" clip-rule="evenodd" d="M14.1413 14.5955L14.4095 14.375V20.2917C14.4095 20.2917 14.2801 20.5875 14.1413 20.6157C14.1249 20.606 14.1413 14.5955 14.1413 14.5955Z" fill="#005CEB" fill-opacity="0.3"/>
<path d="M7.55919 9.39815C7.59729 9.46693 7.64097 9.53149 7.68967 9.59101C7.63457 9.52188 7.5883 9.4443 7.55221 9.36049C7.22773 8.40921 9.58025 7.33962 10.5605 6.625C10.5605 6.625 8.18113 7.9679 7.7095 8.43638C7.29262 8.8503 7.26265 9.10053 7.26265 9.10053L7.2124 9.45014C7.22277 9.28058 7.22615 9.12922 7.26265 9.10053C7.25815 9.13 7.55536 9.35383 7.55919 9.39815Z" fill="white"/>
<path d="M13.4085 13.3545C13.2152 13.1688 10.7478 11.8863 9.0415 10.7266C9.1429 10.7993 9.23327 10.8631 9.30425 10.9164L13.3459 20.1546C13.4311 20.2058 13.4953 20.247 13.5444 20.2732L14.1416 20.6123V14.6779C14.1341 14.6712 14.201 13.8519 13.4085 13.3545Z" fill="white"/>
<path opacity="0.3" d="M7.38428 15.9672C7.29188 15.7508 7.2297 15.5194 7.19995 15.2812C7.20902 15.524 7.27247 15.7601 7.38428 15.9672Z" fill="url(#paint0_linear_16334_1255)"/>
<path d="M9.04124 10.7264C8.43733 10.3202 7.93709 9.92011 7.68921 9.58944C7.64059 9.52981 7.59698 9.46519 7.55897 9.3963C7.55446 9.35198 7.26603 9.09689 7.27369 9.06641C7.23719 9.09534 7.21398 9.2749 7.20361 9.44547L7.2115 15.281C7.24079 15.713 7.27009 15.7297 7.37104 15.9682C7.51863 16.2281 7.59164 16.3268 7.85484 16.5936C8.47271 17.0227 12.2985 19.51 13.351 20.1539L9.30398 10.9136L9.04124 10.7264Z" fill="white"/>
<path opacity="0.2" d="M9.03448 10.7225C8.43057 10.3163 7.93032 9.91621 7.68245 9.58554C7.63598 9.5257 7.59463 9.46093 7.55897 9.39215C7.55446 9.34811 7.2649 9.09298 7.27369 9.0625C7.25567 9.08225 7.22209 9.31069 7.21173 9.48103L7.20361 15.2983C7.21826 15.6618 7.28068 15.7624 7.37262 15.9791C7.50421 16.2283 7.67344 16.4145 7.8643 16.5898C8.4824 17.0188 12.292 19.5061 13.3445 20.15L9.29722 10.9098L9.03448 10.7225Z" fill="url(#paint1_linear_16334_1255)"/>
<path fill-rule="evenodd" clip-rule="evenodd" d="M13.2711 15.7605L12.4313 15.1714C12.2821 15.073 12.1384 15.1366 12.212 15.3104V16.8957C12.2479 16.9543 12.3202 17.1441 12.2866 17.2399C12.1663 17.2332 12.7644 17.8034 13.1023 18.0183C13.2008 18.081 13.3845 18.1072 13.3703 17.8488V15.9657C13.3707 15.9246 13.3617 15.8842 13.3441 15.8483C13.3268 15.8124 13.3017 15.7822 13.2711 15.7605Z" fill="#C9D6ED"/>
<path fill-rule="evenodd" clip-rule="evenodd" d="M13.2355 15.8538C13.1048 15.6689 12.6681 15.3849 12.3717 15.1418C12.2972 15.0798 12.1674 15.1239 12.169 15.2266C12.1877 16.426 12.1915 16.978 12.2525 17.2129C12.2976 17.3922 12.7922 17.7689 13.0735 17.9813C13.157 18.0456 13.27 18.0609 13.2735 17.9446C13.2893 17.4403 13.2735 16.2703 13.2735 15.9712C13.2723 15.9281 13.2587 15.8867 13.2348 15.8533L13.2355 15.8538Z" fill="#1C60DD"/>
</g>
<defs>
<linearGradient id="paint0_linear_16334_1255" x1="9.97655" y1="12.1116" x2="6.9298" y2="15.1972" gradientUnits="userSpaceOnUse">
<stop/>
<stop offset="1" stop-color="#1C60DD" stop-opacity="0"/>
</linearGradient>
<linearGradient id="paint1_linear_16334_1255" x1="11.2522" y1="13.373" x2="8.20554" y2="16.4586" gradientUnits="userSpaceOnUse">
<stop offset="0.19" stop-color="#1C60DD"/>
<stop offset="1" stop-color="#1C60DD"/>
</linearGradient>
<clipPath id="clip0_16334_1255">
<rect width="9.6" height="17.6" fill="white" transform="translate(7.19995 3.19922)"/>
</clipPath>
</defs>
</svg>
