<svg width="21" height="21" viewBox="0 0 21 21" fill="none" xmlns="http://www.w3.org/2000/svg">
<path d="M12.0002 20.0002H2.00019C1.46427 20.0188 0.944666 19.8141 0.56548 19.4349C0.186295 19.0557 -0.0184319 18.5361 0.000191672 18.0002V8.00019C-0.0184319 7.46427 0.186295 6.94467 0.56548 6.56548C0.944666 6.1863 1.46427 5.98157 2.00019 6.00019H6.00019V2.00019C5.98157 1.46427 6.1863 0.944666 6.56548 0.56548C6.94467 0.186295 7.46427 -0.0184319 8.00019 0.000191672H18.0002C18.5361 -0.0184319 19.0557 0.186295 19.4349 0.56548C19.8141 0.944666 20.0188 1.46427 20.0002 2.00019V12.0002C20.0185 12.536 19.8137 13.0555 19.4346 13.4346C19.0555 13.8137 18.536 14.0185 18.0002 14.0002H14.0002V18.0002C14.0185 18.536 13.8137 19.0555 13.4346 19.4346C13.0555 19.8137 12.536 20.0185 12.0002 20.0002ZM2.00019 8.00019V18.0002H12.0002V14.0002H8.00019C7.46435 14.0185 6.94493 13.8137 6.56581 13.4346C6.18669 13.0555 5.98187 12.536 6.00019 12.0002V8.00019H2.00019ZM8.00019 2.00019V12.0002H18.0002V2.00019H8.00019Z" fill="black"/>
</svg>
