<svg width="20" height="26" viewBox="0 0 20 26" fill="none" xmlns="http://www.w3.org/2000/svg">
<path d="M17.5 25.5H2.5C1.11929 25.5 0 24.3807 0 23V3C0 1.61929 1.11929 0.5 2.5 0.5H11.25C11.2636 0.50059 11.2771 0.503116 11.29 0.5075C11.3022 0.511272 11.3148 0.513785 11.3275 0.515C11.4377 0.522066 11.5466 0.543498 11.6512 0.57875L11.6862 0.59C11.7146 0.599602 11.7422 0.611301 11.7688 0.625C11.9049 0.685529 12.029 0.770231 12.135 0.875L19.635 8.375C19.7398 8.48098 19.8245 8.60507 19.885 8.74125C19.8975 8.76875 19.9062 8.7975 19.9163 8.82625L19.9275 8.85875C19.9624 8.96299 19.983 9.07148 19.9888 9.18125C19.9907 9.19273 19.9936 9.20402 19.9975 9.215C19.9997 9.22653 20.0006 9.23828 20.0002 9.25V23C20.0002 24.3807 18.8807 25.5 17.5 25.5ZM2.5 3V23H17.5V10.5H11.25C10.5596 10.5 10 9.94036 10 9.25V3H2.5ZM12.5 4.7675V8H15.7325L12.5 4.7675Z" fill="#AAB0B9"/>
</svg>
