<svg width="135" height="90" viewBox="0 0 135 90" fill="none" xmlns="http://www.w3.org/2000/svg">
<path d="M11.8894 51.4706V50.9706H11.3894H1.125V0.5H78.875V50.9706H22.437H22.2302L22.0838 51.1167L11.8894 61.2943V51.4706Z" fill="#F7F8FA" stroke="#E9EDF2"/>
<path d="M42.0388 14.7734H38.3878L38.6763 30.9644H41.7503L42.0388 14.7734ZM40.2077 37.7116C41.4173 37.7116 42.4272 36.7239 42.4272 35.4921C42.4272 34.2825 41.4173 33.2837 40.2077 33.2837C38.987 33.2837 37.9883 34.2825 37.9883 35.4921C37.9883 36.7239 38.987 37.7116 40.2077 37.7116Z" fill="#E9EDF2"/>
<path d="M123.111 78.75V78.25H123.611H133.875V26.75H56.125V78.25H112.563H112.773L112.92 78.3997L123.111 88.7772V78.75Z" fill="#F7F8FA" stroke="#E9EDF2"/>
<path d="M92.7344 57.2146H95.9082V57.0037C95.9526 54.4513 96.685 53.3083 98.5716 52.1431C100.558 50.9446 101.779 49.2578 101.779 46.7609C101.779 43.1543 99.0487 40.7129 94.976 40.7129C91.2362 40.7129 88.24 42.8991 88.0957 46.8941H91.4693C91.6025 44.5415 93.2781 43.5094 94.976 43.5094C96.8626 43.5094 98.394 44.7634 98.394 46.7276C98.394 48.3811 97.3619 49.5463 96.0414 50.3675C93.9773 51.6326 92.7566 52.8866 92.7344 57.0037V57.2146ZM94.4101 63.9617C95.6197 63.9617 96.6295 62.9741 96.6295 61.7423C96.6295 60.5327 95.6197 59.5339 94.4101 59.5339C93.1894 59.5339 92.1906 60.5327 92.1906 61.7423C92.1906 62.9741 93.1894 63.9617 94.4101 63.9617Z" fill="#E9EDF2"/>
</svg>
