<svg width="64" height="50" viewBox="0 0 64 50" fill="none" xmlns="http://www.w3.org/2000/svg">
<path fill-rule="evenodd" clip-rule="evenodd" d="M0.5 6.88679C0.5 3.08536 3.57559 0 7.37407 0H46.6852C50.4837 0 53.5593 3.08536 53.5593 6.88679V36.2264H63.5V43.1132C63.5 46.9146 60.4244 50 56.6259 50H20.0259C16.2274 50 13.1519 46.9146 13.1519 43.1132V11.9623H0.5V6.88679ZM13.1519 9.96226V6.88679C13.1519 4.18585 10.9676 2 8.27778 2H7.37407C4.68424 2 2.5 4.18585 2.5 6.88679V9.96226H13.1519ZM13.1214 2C14.3756 3.24791 15.1519 4.97698 15.1519 6.88679V43.1132C15.1519 45.8141 17.3361 48 20.0259 48C22.7158 48 24.9 45.8141 24.9 43.1132V36.2264H51.5593V6.88679C51.5593 4.18585 49.375 2 46.6852 2H13.1214ZM24.8695 48H56.6259C59.3158 48 61.5 45.8141 61.5 43.1132V38.2264H26.9V43.1132C26.9 45.023 26.1237 46.7521 24.8695 48Z" fill="#D8DFE3"/>
<path d="M21.5 11H45.5V14H21.5V11Z" fill="#D8DFE3"/>
<path d="M21.5 19H45.5V22H21.5V19Z" fill="#D8DFE3"/>
<path d="M21.5 27H45.5V30H21.5V27Z" fill="#D8DFE3"/>
</svg>
