<svg width="25" height="24" viewBox="0 0 25 24" fill="none" xmlns="http://www.w3.org/2000/svg">
<path d="M2.25201 12.002C2.25318 16.9214 5.83042 21.11 10.689 21.881V14.892H8.15201V12.002H10.692V9.80201C10.5785 8.75955 10.9345 7.72061 11.6637 6.96695C12.3928 6.21328 13.4194 5.82303 14.465 5.90201C15.2156 5.91413 15.9642 5.98098 16.705 6.10201V8.56101H15.441C15.0059 8.50402 14.5684 8.64774 14.2518 8.95168C13.9352 9.25563 13.7738 9.6869 13.813 10.124V12.002H16.584L16.141 14.893H13.813V21.881C19.0675 21.0506 22.7521 16.2518 22.1975 10.9611C21.6429 5.67038 17.0433 1.73994 11.7308 2.01719C6.41838 2.29444 2.25286 6.68232 2.25201 12.002Z" fill="#3B67D7"/>
</svg>
