<svg width="40" height="40" viewBox="0 0 40 40" fill="none" xmlns="http://www.w3.org/2000/svg">
    <path d="M7 0.5C3.41015 0.5 0.5 3.41015 0.5 7V11C0.5 11.8284 1.17157 12.5 2 12.5C2.82843 12.5 3.5 11.8284 3.5 11V7C3.5 5.067 5.067 3.5 7 3.5H11C11.8284 3.5 12.5 2.82843 12.5 2C12.5 1.17157 11.8284 0.5 11 0.5H7Z" fill="white"/>
    <path d="M29 0.5C28.1716 0.5 27.5 1.17157 27.5 2C27.5 2.82843 28.1716 3.5 29 3.5H33C34.933 3.5 36.5 5.067 36.5 7V11C36.5 11.8284 37.1716 12.5 38 12.5C38.8284 12.5 39.5 11.8284 39.5 11V7C39.5 3.41015 36.5899 0.5 33 0.5H29Z" fill="white"/>
    <path d="M3.5 29C3.5 28.1716 2.82843 27.5 2 27.5C1.17157 27.5 0.5 28.1716 0.5 29V33C0.5 36.5899 3.41015 39.5 7 39.5H11C11.8284 39.5 12.5 38.8284 12.5 38C12.5 37.1716 11.8284 36.5 11 36.5H7C5.067 36.5 3.5 34.933 3.5 33V29Z" fill="white"/>
    <path d="M39.5 29C39.5 28.1716 38.8284 27.5 38 27.5C37.1716 27.5 36.5 28.1716 36.5 29V33C36.5 34.933 34.933 36.5 33 36.5H29C28.1716 36.5 27.5 37.1716 27.5 38C27.5 38.8284 28.1716 39.5 29 39.5H33C36.5899 39.5 39.5 36.5899 39.5 33V29Z" fill="white"/>
    <path d="M14.6051 25.7827C14.1363 25.0997 13.2025 24.9261 12.5195 25.3949C11.8365 25.8637 11.6629 26.7974 12.1317 27.4804C13.7389 29.8219 16.7014 30.9261 19.5614 30.9721C22.4536 31.0187 25.5974 29.9997 27.7416 27.6404C28.2988 27.0274 28.2535 26.0787 27.6404 25.5215C27.0274 24.9644 26.0787 25.0097 25.5215 25.6227C24.0736 27.2159 21.8293 28.0083 19.6097 27.9725C17.3578 27.9363 15.4848 27.0642 14.6051 25.7827Z" fill="white"/>
    <path d="M20.0001 9.97368C20.8285 9.97368 21.5001 10.6453 21.5001 11.4737V17.2315C21.5001 19.2261 20.5843 21.1102 19.0159 22.3425L18.0847 23.0742C17.4333 23.586 16.4903 23.4729 15.9785 22.8215C15.4667 22.1701 15.5798 21.2271 16.2312 20.7153L17.1624 19.9836C18.007 19.32 18.5001 18.3055 18.5001 17.2315V11.4737C18.5001 10.6453 19.1716 9.97368 20.0001 9.97368Z" fill="white"/>
    <path d="M12.0264 13.3684C12.0264 12.54 11.3548 11.8684 10.5264 11.8684C9.69794 11.8684 9.02637 12.54 9.02637 13.3684V17.1579C9.02637 17.9863 9.69794 18.6579 10.5264 18.6579C11.3548 18.6579 12.0264 17.9863 12.0264 17.1579V13.3684Z" fill="white"/>
    <path d="M30.9737 13.3684C30.9737 12.54 30.3022 11.8684 29.4737 11.8684C28.6453 11.8684 27.9737 12.54 27.9737 13.3684V17.1579C27.9737 17.9863 28.6453 18.6579 29.4737 18.6579C30.3022 18.6579 30.9737 17.9863 30.9737 17.1579V13.3684Z" fill="white"/>
</svg>
