<svg width="21" height="20" viewBox="0 0 21 20" fill="none" xmlns="http://www.w3.org/2000/svg">
<path d="M0.876953 10.002C0.878117 14.9214 4.45536 19.11 9.31395 19.881V12.892H6.77695V10.002H9.31695V7.80201C9.20341 6.75955 9.55947 5.72061 10.2886 4.96695C11.0177 4.21328 12.0443 3.82303 13.09 3.90201C13.8405 3.91413 14.5891 3.98098 15.33 4.10201V6.56101H14.066C13.6308 6.50402 13.1933 6.64774 12.8767 6.95168C12.5601 7.25563 12.3987 7.6869 12.438 8.12401V10.002H15.209L14.766 12.893H12.438V19.881C17.6924 19.0506 21.377 14.2518 20.8225 8.96109C20.2679 3.67038 15.6682 -0.260057 10.3558 0.0171922C5.04331 0.294442 0.877798 4.68232 0.876953 10.002Z" fill="#D8DFE3"/>
</svg>
