<svg width="19" height="19" viewBox="0 0 19 19" fill="none" xmlns="http://www.w3.org/2000/svg">
<path d="M17.5 0H1.5C0.947 0 0.5 0.447 0.5 1V3.59C0.5 4.113 0.713 4.627 1.083 4.997L6.5 10.414V18C6.5 18.347 6.68 18.668 6.975 18.851C7.135 18.95 7.317 19 7.5 19C7.653 19 7.806 18.965 7.947 18.895L11.947 16.895C12.286 16.725 12.5 16.379 12.5 16V10.414L17.917 4.997C18.287 4.627 18.5 4.113 18.5 3.59V1C18.5 0.447 18.053 0 17.5 0ZM10.793 9.293C10.605 9.48 10.5 9.734 10.5 10V15.382L8.5 16.382V10C8.5 9.734 8.395 9.48 8.207 9.293L2.5 3.59V2H16.501L16.503 3.583L10.793 9.293Z" fill="#0083C7"/>
</svg>
