<svg width="21" height="20" viewBox="0 0 21 20" fill="none" xmlns="http://www.w3.org/2000/svg">
<path fill-rule="evenodd" clip-rule="evenodd" d="M8.77674 19.8798C8.96023 19.9084 9.14538 19.9321 9.33203 19.9506C9.66094 19.9833 9.99453 20 10.332 20C10.6695 20 11.0031 19.9833 11.332 19.9506C11.5187 19.9321 11.7038 19.9084 11.8873 19.8798C14.5584 19.4627 16.8792 17.9883 18.4083 15.8981C18.619 15.6101 18.8147 15.3103 18.9942 15C19.6874 13.8017 20.1391 12.4462 20.2827 11C20.3153 10.6711 20.332 10.3375 20.332 10C20.332 9.6625 20.3153 9.32891 20.2827 9C20.1391 7.55385 19.6874 6.19833 18.9942 5C18.8157 4.69143 18.6212 4.39328 18.4118 4.1067C16.8784 2.00794 14.547 0.529136 11.8641 0.116635C11.6882 0.0895896 11.5108 0.0671273 11.332 0.0493752C11.0031 0.0167194 10.6695 0 10.332 0C9.99453 0 9.66094 0.0167194 9.33203 0.0493752C9.15323 0.0671273 8.97582 0.0895896 8.79992 0.116635C6.11673 0.52918 3.78518 2.00826 2.25177 4.10737C2.04256 4.39375 1.84821 4.69167 1.66985 5C0.976659 6.19833 0.524989 7.55385 0.381406 9C0.348751 9.32891 0.332031 9.6625 0.332031 10C0.332031 10.3375 0.348751 10.6711 0.381406 11C0.524989 12.4462 0.976659 13.8017 1.66985 15C1.84981 15.3111 2.04606 15.6116 2.25741 15.9003C3.78648 17.9893 6.10659 19.4628 8.77674 19.8798ZM4.50369 15.4804C5.13609 16.1528 5.88302 16.7152 6.71312 17.1369C6.36097 16.5332 6.05758 15.9122 5.8027 15.2785C5.3804 15.3382 4.94821 15.4055 4.50369 15.4804ZM7.87906 15.0412C8.2617 15.8796 8.74585 16.6888 9.33203 17.4537V14.9517C8.85339 14.9696 8.37064 14.9995 7.87906 15.0412ZM9.33203 12.9505C8.62822 12.9752 7.91692 13.0242 7.18536 13.0972C7.00406 12.4069 6.88582 11.7053 6.83038 11H9.33203V12.9505ZM11.332 11V12.9455C12.0396 12.967 12.7519 13.0133 13.482 13.0844C13.6615 12.3982 13.7786 11.701 13.8337 11H11.332ZM13.8232 9H11.332V7.14926C12.0358 7.12339 12.7452 7.07117 13.4725 6.99288C13.6462 7.65479 13.7632 8.32597 13.8232 9ZM15.8395 11C15.7872 11.7837 15.6686 12.5641 15.4833 13.3335C16.1149 13.4279 16.7662 13.539 17.4445 13.6669C17.8664 12.8507 18.1519 11.9523 18.2703 11H15.8395ZM18.2703 9H15.8295C15.7709 8.23533 15.6496 7.47363 15.4659 6.72197C16.1072 6.61808 16.7684 6.49621 17.4566 6.35652C17.8718 7.16648 18.153 8.05678 18.2703 9ZM16.2014 4.56352C15.5442 3.85429 14.7606 3.2649 13.8867 2.83083C14.2594 3.46816 14.5799 4.12467 14.8479 4.79485C15.2866 4.72713 15.7369 4.65006 16.2014 4.56352ZM12.7857 5.05161C12.4023 4.19894 11.9175 3.3743 11.332 2.59308V5.14782C11.8099 5.12894 12.2928 5.09693 12.7857 5.05161ZM6.77733 2.83083C5.90175 3.26573 5.11687 3.85653 4.45893 4.56757C4.92349 4.65476 5.37416 4.73235 5.81393 4.80041C6.08242 4.1283 6.40365 3.46992 6.77733 2.83083ZM5.19685 6.72751C4.55434 6.62306 3.89316 6.50033 3.2059 6.35964C2.79151 7.16877 2.5109 8.05799 2.39373 9H4.83459C4.89303 8.23721 5.0139 7.47737 5.19685 6.72751ZM6.84089 9C6.90068 8.32777 7.01719 7.65837 7.19018 6.99818C7.91518 7.07561 8.625 7.12686 9.33203 7.1514V9H6.84089ZM9.33203 5.15012C8.85201 5.1322 8.36845 5.10097 7.87625 5.05632C8.26001 4.20198 8.74545 3.37574 9.33203 2.59308V5.15012ZM4.82458 11C4.87719 11.7886 4.99693 12.5737 5.18419 13.3477C4.55387 13.4414 3.9028 13.5507 3.22415 13.6758C2.79975 12.8572 2.51261 11.9558 2.39373 11H4.82458ZM16.1709 15.4692C15.7252 15.3927 15.2915 15.3244 14.8671 15.2643C14.611 15.9029 14.3057 16.5287 13.9509 17.1369C14.7857 16.7129 15.5363 16.1465 16.1709 15.4692ZM11.332 17.4537C11.9208 16.6854 12.4066 15.8725 12.7901 15.0301C12.2983 14.9899 11.8139 14.9621 11.332 14.9464V17.4537Z" fill="#0083C7"/>
</svg>
