<svg width="18" height="18" viewBox="0 0 18 18" fill="none" xmlns="http://www.w3.org/2000/svg">
<path d="M8.956 7.35601V10.807H13.748C13.302 13 11.435 14.26 8.956 14.26C6.06855 14.2203 3.74866 11.8682 3.74866 8.98051C3.74866 6.09278 6.06855 3.74075 8.956 3.70101C10.1562 3.69957 11.3195 4.11608 12.246 4.87901L14.846 2.27901C11.8636 -0.342922 7.508 -0.680155 4.15756 1.45145C0.807109 3.58306 -0.732977 7.67122 0.378248 11.4836C1.48947 15.296 4.98495 17.9164 8.956 17.914C13.423 17.914 17.485 14.665 17.485 8.98001C17.4781 8.43265 17.411 7.88771 17.285 7.35501L8.956 7.35601Z" fill="#094EFF"/>
</svg>
