<svg width="19" height="19" viewBox="0 0 19 19" fill="none" xmlns="http://www.w3.org/2000/svg">
<path d="M9.752 18.041C7.292 18.041 7.002 18.028 6.042 17.986C5.29337 17.9614 4.55443 17.8092 3.857 17.536C2.65031 17.0664 1.69614 16.1119 1.227 14.905C0.964305 14.205 0.822617 13.4655 0.807999 12.718C0.751999 11.76 0.751999 11.446 0.751999 9.005C0.751999 6.538 0.764999 6.25 0.807999 5.295C0.822937 4.54853 0.96462 3.81001 1.227 3.111C1.69563 1.90253 2.65135 0.947177 3.86 0.479005C4.55864 0.215207 5.29735 0.0731492 6.044 0.0590049C6.999 0.00500488 7.313 0.00500488 9.752 0.00500488C12.232 0.00500488 12.517 0.0180049 13.462 0.0590049C14.2106 0.0732715 14.9512 0.215315 15.652 0.479005C16.8603 0.947708 17.8158 1.90288 18.285 3.111C18.5521 3.8202 18.6946 4.57026 18.706 5.328C18.762 6.28601 18.762 6.59901 18.762 9.03901C18.762 11.479 18.748 11.799 18.706 12.746C18.6911 13.4942 18.5491 14.2344 18.286 14.935C17.8157 16.1427 16.8601 17.0976 15.652 17.567C14.9522 17.8292 14.2131 17.9709 13.466 17.986C12.511 18.041 12.198 18.041 9.752 18.041ZM9.718 1.588C7.272 1.588 7.018 1.6 6.063 1.643C5.49298 1.65056 4.92848 1.75575 4.394 1.954C3.60475 2.25601 2.98023 2.878 2.675 3.666C2.47521 4.2063 2.37001 4.77698 2.364 5.353C2.311 6.322 2.311 6.576 2.311 9.005C2.311 11.405 2.32 11.696 2.364 12.659C2.37295 13.2292 2.47809 13.7938 2.675 14.329C2.98067 15.1165 3.60509 15.738 4.394 16.04C4.92811 16.2396 5.49285 16.3448 6.063 16.351C7.031 16.407 7.286 16.407 9.718 16.407C12.171 16.407 12.425 16.395 13.372 16.351C13.9424 16.3441 14.5073 16.2389 15.042 16.04C15.8265 15.7354 16.4469 15.1153 16.752 14.331C16.9514 13.7903 17.0566 13.2193 17.063 12.643H17.074C17.117 11.687 17.117 11.432 17.117 8.98901C17.117 6.54601 17.106 6.289 17.063 5.334C17.054 4.76446 16.9489 4.20052 16.752 3.666C16.4476 2.88058 15.8271 2.2593 15.042 1.954C14.5074 1.75475 13.9424 1.64953 13.372 1.643C12.405 1.588 12.152 1.588 9.718 1.588ZM9.752 13.624C7.88199 13.6252 6.19542 12.4997 5.47886 10.7725C4.7623 9.04518 5.15691 7.05634 6.47863 5.73347C7.80036 4.4106 9.78886 4.01428 11.5168 4.72934C13.2447 5.4444 14.3716 7.12999 14.372 9C14.3692 11.5511 12.3031 13.619 9.752 13.624ZM9.752 5.998C8.09514 5.998 6.752 7.34115 6.752 8.998C6.752 10.6549 8.09514 11.998 9.752 11.998C11.4089 11.998 12.752 10.6549 12.752 8.998C12.7481 7.34275 11.4073 6.00185 9.752 5.998ZM14.552 5.28501C13.9574 5.2828 13.4769 4.79959 13.478 4.20501C13.4791 3.61043 13.9614 3.12901 14.556 3.12901C15.1506 3.12901 15.6329 3.61042 15.634 4.205C15.6343 4.49187 15.5203 4.76703 15.3173 4.96968C15.1142 5.17234 14.8389 5.2858 14.552 5.28501Z" fill="url(#paint0_linear)"/>
<defs>
<linearGradient id="paint0_linear" x1="9.757" y1="0.00500488" x2="9.757" y2="18.041" gradientUnits="userSpaceOnUse">
<stop stop-color="#C540F3"/>
<stop offset="1" stop-color="#FF8C05"/>
</linearGradient>
</defs>
</svg>
