<svg width="25" height="24" viewBox="0 0 25 24" fill="none" xmlns="http://www.w3.org/2000/svg">
<path d="M12.752 21.041C10.292 21.041 10.002 21.028 9.042 20.986C8.29337 20.9614 7.55443 20.8092 6.857 20.536C5.65031 20.0664 4.69614 19.1119 4.227 17.905C3.96431 17.205 3.82262 16.4655 3.808 15.718C3.752 14.76 3.752 14.446 3.752 12.005C3.752 9.538 3.765 9.25 3.808 8.295C3.82294 7.54853 3.96462 6.81001 4.227 6.111C4.69563 4.90253 5.65135 3.94718 6.86 3.479C7.55864 3.21521 8.29735 3.07315 9.044 3.059C9.999 3.005 10.313 3.005 12.752 3.005C15.232 3.005 15.517 3.018 16.462 3.059C17.2106 3.07327 17.9512 3.21531 18.652 3.479C19.8603 3.94771 20.8158 4.90288 21.285 6.111C21.5521 6.8202 21.6946 7.57026 21.706 8.328C21.762 9.28601 21.762 9.59901 21.762 12.039C21.762 14.479 21.748 14.799 21.706 15.746C21.6911 16.4942 21.5491 17.2344 21.286 17.935C20.8157 19.1427 19.8601 20.0976 18.652 20.567C17.9522 20.8292 17.2131 20.9709 16.466 20.986C15.511 21.041 15.198 21.041 12.752 21.041ZM12.718 4.588C10.272 4.588 10.018 4.6 9.063 4.643C8.49298 4.65056 7.92848 4.75575 7.394 4.954C6.60475 5.25601 5.98023 5.878 5.675 6.666C5.47521 7.2063 5.37001 7.77698 5.364 8.353C5.311 9.322 5.311 9.576 5.311 12.005C5.311 14.405 5.32 14.696 5.364 15.659C5.37295 16.2292 5.47809 16.7938 5.675 17.329C5.98067 18.1165 6.60509 18.738 7.394 19.04C7.92811 19.2396 8.49285 19.3448 9.063 19.351C10.031 19.407 10.286 19.407 12.718 19.407C15.171 19.407 15.425 19.395 16.372 19.351C16.9424 19.3441 17.5073 19.2389 18.042 19.04C18.8265 18.7354 19.4469 18.1153 19.752 17.331C19.9514 16.7903 20.0566 16.2193 20.063 15.643H20.074C20.117 14.687 20.117 14.432 20.117 11.989C20.117 9.54601 20.106 9.289 20.063 8.334C20.054 7.76446 19.9489 7.20052 19.752 6.666C19.4476 5.88058 18.8271 5.2593 18.042 4.954C17.5074 4.75475 16.9424 4.64953 16.372 4.643C15.405 4.588 15.152 4.588 12.718 4.588ZM12.752 16.624C10.882 16.6252 9.19542 15.4997 8.47886 13.7725C7.7623 12.0452 8.15691 10.0563 9.47863 8.73347C10.8004 7.4106 12.7889 7.01428 14.5168 7.72934C16.2447 8.4444 17.3716 10.13 17.372 12C17.3692 14.5511 15.3031 16.619 12.752 16.624ZM12.752 8.998C11.0951 8.998 9.752 10.3412 9.752 11.998C9.752 13.6549 11.0951 14.998 12.752 14.998C14.4089 14.998 15.752 13.6549 15.752 11.998C15.7481 10.3427 14.4073 9.00185 12.752 8.998ZM17.552 8.28501C16.9574 8.2828 16.4769 7.79959 16.478 7.20501C16.4791 6.61043 16.9614 6.12901 17.556 6.12901C18.1506 6.12901 18.6329 6.61042 18.634 7.205C18.6343 7.49187 18.5203 7.76703 18.3173 7.96968C18.1142 8.17234 17.8389 8.2858 17.552 8.28501Z" fill="url(#paint0_linear)"/>
<defs>
<linearGradient id="paint0_linear" x1="12.757" y1="3.005" x2="12.757" y2="21.041" gradientUnits="userSpaceOnUse">
<stop stop-color="#C540F3"/>
<stop offset="1" stop-color="#FF8C05"/>
</linearGradient>
</defs>
</svg>
