<svg width="19" height="19" viewBox="0 0 19 19" fill="none" xmlns="http://www.w3.org/2000/svg">
<path d="M9.37695 18.041C6.91695 18.041 6.62695 18.028 5.66695 17.986C4.91832 17.9614 4.17939 17.8092 3.48195 17.536C2.27526 17.0664 1.32109 16.1119 0.851953 14.905C0.589259 14.205 0.447571 13.4655 0.432953 12.718C0.376953 11.76 0.376953 11.446 0.376953 9.005C0.376953 6.538 0.389953 6.25 0.432953 5.295C0.447891 4.54853 0.589574 3.81001 0.851953 3.111C1.32058 1.90253 2.2763 0.947177 3.48495 0.479005C4.1836 0.215207 4.9223 0.0731492 5.66895 0.0590049C6.62395 0.00500488 6.93795 0.00500488 9.37695 0.00500488C11.857 0.00500488 12.142 0.0180049 13.087 0.0590049C13.8355 0.0732715 14.5762 0.215315 15.277 0.479005C16.4853 0.947708 17.4408 1.90288 17.91 3.111C18.1771 3.8202 18.3195 4.57026 18.331 5.328C18.387 6.28601 18.387 6.59901 18.387 9.03901C18.387 11.479 18.373 11.799 18.331 12.746C18.3161 13.4942 18.174 14.2344 17.911 14.935C17.4406 16.1427 16.485 17.0976 15.277 17.567C14.5772 17.8292 13.8381 17.9709 13.091 17.986C12.136 18.041 11.823 18.041 9.37695 18.041ZM9.34295 1.588C6.89695 1.588 6.64295 1.6 5.68795 1.643C5.11794 1.65056 4.55343 1.75575 4.01895 1.954C3.22971 2.25601 2.60518 2.878 2.29995 3.666C2.10017 4.2063 1.99496 4.77698 1.98895 5.353C1.93595 6.322 1.93595 6.576 1.93595 9.005C1.93595 11.405 1.94495 11.696 1.98895 12.659C1.99791 13.2292 2.10305 13.7938 2.29995 14.329C2.60563 15.1165 3.23005 15.738 4.01895 16.04C4.55307 16.2396 5.1178 16.3448 5.68795 16.351C6.65595 16.407 6.91095 16.407 9.34295 16.407C11.796 16.407 12.05 16.395 12.997 16.351C13.5674 16.3441 14.1323 16.2389 14.667 16.04C15.4514 15.7354 16.0719 15.1153 16.377 14.331C16.5764 13.7903 16.6815 13.2193 16.688 12.643H16.699C16.742 11.687 16.742 11.432 16.742 8.98901C16.742 6.54601 16.731 6.289 16.688 5.334C16.679 4.76446 16.5738 4.20052 16.377 3.666C16.0726 2.88058 15.452 2.2593 14.667 1.954C14.1324 1.75475 13.5674 1.64953 12.997 1.643C12.03 1.588 11.777 1.588 9.34295 1.588ZM9.37695 13.624C7.50694 13.6252 5.82037 12.4997 5.10382 10.7725C4.38726 9.04518 4.78186 7.05634 6.10358 5.73347C7.42531 4.4106 9.41382 4.01428 11.1417 4.72934C12.8696 5.4444 13.9965 7.12999 13.997 9C13.9942 11.5511 11.928 13.619 9.37695 13.624ZM9.37695 5.998C7.7201 5.998 6.37695 7.34115 6.37695 8.998C6.37695 10.6549 7.7201 11.998 9.37695 11.998C11.0338 11.998 12.377 10.6549 12.377 8.998C12.3731 7.34275 11.0322 6.00185 9.37695 5.998ZM14.177 5.28501C13.5824 5.2828 13.1019 4.79959 13.103 4.20501C13.1041 3.61043 13.5864 3.12901 14.181 3.12901C14.7755 3.12901 15.2578 3.61042 15.259 4.205C15.2592 4.49187 15.1452 4.76703 14.9422 4.96968C14.7392 5.17234 14.4638 5.2858 14.177 5.28501Z" fill="#D8DFE3"/>
</svg>
