<svg width="19" height="18" viewBox="0 0 19 18" fill="none" xmlns="http://www.w3.org/2000/svg">
<path d="M10.125 18H6.125V6H10.125V8C10.9776 6.91525 12.2706 6.26857 13.65 6.237C16.1306 6.25077 18.1322 8.26938 18.125 10.75V18H14.125V11.25C13.965 10.1326 13.0068 9.30358 11.878 9.306C11.3843 9.32161 10.9182 9.53778 10.5874 9.90462C10.2566 10.2715 10.0896 10.7573 10.125 11.25V18ZM4.125 18H0.125V6H4.125V18ZM2.125 4C1.02043 4 0.125 3.10457 0.125 2C0.125 0.89543 1.02043 0 2.125 0C3.22957 0 4.125 0.89543 4.125 2C4.125 2.53043 3.91429 3.03914 3.53921 3.41421C3.16414 3.78929 2.65543 4 2.125 4Z" fill="#D8DFE3"/>
</svg>
