<svg width="22" height="29" viewBox="0 0 22 29" fill="none" xmlns="http://www.w3.org/2000/svg">
<path d="M11 5.63636C10.2469 5.63636 9.63636 6.24688 9.63636 7C9.63636 7.75312 10.2469 8.36364 11 8.36364C11.7531 8.36364 12.3636 7.75312 12.3636 7C12.3636 6.24688 11.7531 5.63636 11 5.63636Z" fill="#DF3333"/>
<path fill-rule="evenodd" clip-rule="evenodd" d="M6.0328 22.9744C1.04315 15.9469 0 14.4777 0 10.875C0 4.86888 4.92485 0 11 0C17.0752 0 22 4.86888 22 10.875C22 14.4777 20.9569 15.9469 15.9672 22.9744C14.8841 24.4998 13.6151 26.2871 12.1305 28.4149C11.5842 29.1951 10.4157 29.195 9.86952 28.4149C8.38496 26.2872 7.11583 24.4997 6.0328 22.9744ZM8 7C8 5.34315 9.34315 4 11 4C12.6569 4 14 5.34315 14 7C14 8.65685 12.6569 10 11 10C9.34315 10 8 8.65685 8 7ZM11 12.5789C9.11061 12.5789 7.57895 14.1106 7.57895 16H6C6 13.2386 8.23858 11 11 11C13.7614 11 16 13.2386 16 16H14.4211C14.4211 14.1106 12.8894 12.5789 11 12.5789Z" fill="#DF3333"/>
</svg>
