<svg width="32" height="32" viewBox="0 0 32 32" fill="none" xmlns="http://www.w3.org/2000/svg">
<circle cx="16" cy="16" r="16" fill="#8247E5"/>
<path d="M20.8007 12.7865C20.4595 12.5902 20.0209 12.5902 19.631 12.7865L16.9016 14.4055L15.0496 15.4357L12.369 17.0547C12.0278 17.251 11.5892 17.251 11.1993 17.0547L9.10356 15.7792C8.76239 15.5829 8.5187 15.1904 8.5187 14.7489V12.2959C8.5187 11.9034 8.71365 11.5109 9.10356 11.2656L11.1993 10.0391C11.5405 9.84287 11.9791 9.84287 12.369 10.0391L14.4647 11.3147C14.8059 11.5109 15.0496 11.9034 15.0496 12.3449V13.9639L16.9016 12.8846V11.2166C16.9016 10.8241 16.7067 10.4316 16.3168 10.1863L12.4177 7.88046C12.0766 7.68422 11.6379 7.68422 11.248 7.88046L7.25151 10.2354C6.86161 10.4316 6.66666 10.8241 6.66666 11.2166V15.8282C6.66666 16.2207 6.86161 16.6132 7.25151 16.8585L11.1993 19.1643C11.5405 19.3606 11.9791 19.3606 12.369 19.1643L15.0496 17.5944L16.9016 16.5151L19.5822 14.9451C19.9234 14.7489 20.362 14.7489 20.7519 14.9451L22.8477 16.1717C23.1888 16.3679 23.4325 16.7604 23.4325 17.2019V19.6549C23.4325 20.0474 23.2376 20.4399 22.8477 20.6852L20.8007 21.9117C20.4595 22.108 20.0209 22.108 19.631 21.9117L17.5352 20.6852C17.1941 20.489 16.9504 20.0965 16.9504 19.6549V18.085L15.0983 19.1643V20.7833C15.0983 21.1758 15.2933 21.5683 15.6832 21.8136L19.631 24.1194C19.9721 24.3157 20.4108 24.3157 20.8007 24.1194L24.7485 21.8136C25.0896 21.6174 25.3333 21.2249 25.3333 20.7833V16.1226C25.3333 15.7301 25.1384 15.3376 24.7485 15.0923L20.8007 12.7865Z" fill="white"/>
</svg>
