<svg width="17" height="5" viewBox="0 0 17 5" fill="none" xmlns="http://www.w3.org/2000/svg">
<path d="M14.5 4.5C13.3954 4.5 12.5 3.60457 12.5 2.5C12.5 1.39543 13.3954 0.5 14.5 0.5C15.6046 0.5 16.5 1.39543 16.5 2.5C16.5 3.03043 16.2893 3.53914 15.9142 3.91421C15.5391 4.28929 15.0304 4.5 14.5 4.5ZM8.5 4.5C7.39543 4.5 6.5 3.60457 6.5 2.5C6.5 1.39543 7.39543 0.5 8.5 0.5C9.60457 0.5 10.5 1.39543 10.5 2.5C10.5 3.03043 10.2893 3.53914 9.91421 3.91421C9.53914 4.28929 9.03043 4.5 8.5 4.5ZM2.5 4.5C1.39543 4.5 0.5 3.60457 0.5 2.5C0.5 1.39543 1.39543 0.5 2.5 0.5C3.60457 0.5 4.5 1.39543 4.5 2.5C4.5 3.03043 4.28929 3.53914 3.91421 3.91421C3.53914 4.28929 3.03043 4.5 2.5 4.5Z" fill="#D8DFE3"/>
</svg>
