<svg width="170" height="50" viewBox="0 0 170 50" fill="none" xmlns="http://www.w3.org/2000/svg">
<rect width="170" height="50" rx="6" fill="#1D2127"/>
<path d="M35.655 29.6791C39.2073 27.6859 41.9003 26.1671 42.1324 26.049C42.875 25.6455 43.6418 24.5774 42.1324 23.7478C41.6451 23.4869 39.0213 22.0154 35.655 20.1177L30.9883 24.9339L35.655 29.679V29.6791Z" fill="#FFD900"/>
<path d="M30.9877 24.9341L16.1284 40.2379C16.4772 40.2851 16.871 40.1906 17.3352 39.9298C18.3099 39.3846 28.6422 33.6185 35.6544 29.6805L30.9877 24.9341Z" fill="#F43249"/>
<path d="M30.9878 24.934L35.6545 20.1416C35.6545 20.1416 18.3805 10.508 17.3353 9.93928C16.9416 9.70096 16.5003 9.63017 16.1055 9.70096L30.9878 24.934Z" fill="#00EE76"/>
<path d="M30.988 24.9342L16.1056 9.70117C15.5016 9.84387 14.9912 10.3892 14.9912 11.5044V38.4349C14.9912 39.4556 15.3862 40.1908 16.1287 40.2617L30.988 24.9342Z" fill="#00D3FF"/>
<path d="M58.8523 12H59.7614C59.4915 10.5938 58.3125 9.62784 56.7784 9.62784C54.9141 9.62784 53.5966 11.0625 53.5966 13.3636C53.5966 15.6648 54.9034 17.0994 56.8352 17.0994C58.5682 17.0994 59.804 15.9453 59.804 14.1449V13.3636H57.0341V14.1449H58.9517C58.9268 15.4517 58.0675 16.2756 56.8352 16.2756C55.4858 16.2756 54.4489 15.2528 54.4489 13.3636C54.4489 11.4744 55.4858 10.4517 56.7784 10.4517C57.8295 10.4517 58.5433 11.0447 58.8523 12ZM63.4856 17.1136C64.5936 17.1136 65.4032 16.5597 65.6589 15.7358L64.8493 15.5085C64.6362 16.0767 64.1426 16.3608 63.4856 16.3608C62.502 16.3608 61.8237 15.7251 61.7846 14.5568H65.7441V14.2017C65.7441 12.1705 64.5368 11.4744 63.4004 11.4744C61.9231 11.4744 60.943 12.6392 60.943 14.3153C60.943 15.9915 61.9089 17.1136 63.4856 17.1136ZM61.7846 13.8324C61.8414 12.9837 62.4416 12.2273 63.4004 12.2273C64.3095 12.2273 64.8919 12.9091 64.8919 13.8324H61.7846ZM69.3912 11.5455H68.2264V10.2386H67.3883V11.5455H66.5645V12.2557H67.3883V15.6648C67.3883 16.6165 68.1554 17.071 68.8656 17.071C69.1781 17.071 69.377 17.0142 69.4906 16.9716L69.3201 16.2188C69.2491 16.233 69.1355 16.2614 68.9508 16.2614C68.5815 16.2614 68.2264 16.1477 68.2264 15.4375V12.2557H69.3912V11.5455ZM73.4643 17H74.3024V11.5455H73.4643V17ZM73.8904 10.6364C74.2172 10.6364 74.487 10.3807 74.487 10.0682C74.487 9.75568 74.2172 9.5 73.8904 9.5C73.5637 9.5 73.2939 9.75568 73.2939 10.0682C73.2939 10.3807 73.5637 10.6364 73.8904 10.6364ZM78.2095 11.5455H77.0447V10.2386H76.2067V11.5455H75.3828V12.2557H76.2067V15.6648C76.2067 16.6165 76.9737 17.071 77.6839 17.071C77.9964 17.071 78.1953 17.0142 78.3089 16.9716L78.1385 16.2188C78.0675 16.233 77.9538 16.2614 77.7692 16.2614C77.3999 16.2614 77.0447 16.1477 77.0447 15.4375V12.2557H78.2095V11.5455ZM84.4986 17.1136C85.9759 17.1136 86.9702 15.9915 86.9702 14.3011C86.9702 12.5966 85.9759 11.4744 84.4986 11.4744C83.0213 11.4744 82.027 12.5966 82.027 14.3011C82.027 15.9915 83.0213 17.1136 84.4986 17.1136ZM84.4986 16.3608C83.3764 16.3608 82.8651 15.3949 82.8651 14.3011C82.8651 13.2074 83.3764 12.2273 84.4986 12.2273C85.6207 12.2273 86.1321 13.2074 86.1321 14.3011C86.1321 15.3949 85.6207 16.3608 84.4986 16.3608ZM89.0875 13.7188C89.0875 12.767 89.677 12.2273 90.4796 12.2273C91.2573 12.2273 91.7296 12.7351 91.7296 13.5909V17H92.5676V13.5341C92.5676 12.142 91.8255 11.4744 90.7211 11.4744C89.8972 11.4744 89.3858 11.8438 89.1301 12.3977H89.0591V11.5455H88.2495V17H89.0875V13.7188Z" fill="white"/>
<path d="M63.0611 29.0895H65.4773C65.0746 26.5199 62.8501 24.7301 59.9545 24.7301C56.5284 24.7301 53.9588 27.2486 53.9588 31.4673C53.9588 35.6094 56.4134 38.179 60.0249 38.179C63.2656 38.179 65.5859 36.0952 65.5859 32.7202V31.1477H60.2741V33.0014H63.2912C63.2528 34.8679 62.0064 36.0504 60.0376 36.0504C57.8452 36.0504 56.343 34.4077 56.343 31.4418C56.343 28.495 57.8707 26.8587 59.9865 26.8587C61.5653 26.8587 62.6392 27.7024 63.0611 29.0895ZM72.0595 38.1918C74.9359 38.1918 76.764 36.1655 76.764 33.1293C76.764 30.0866 74.9359 28.054 72.0595 28.054C69.1831 28.054 67.3549 30.0866 67.3549 33.1293C67.3549 36.1655 69.1831 38.1918 72.0595 38.1918ZM72.0723 36.3381C70.4806 36.3381 69.7008 34.919 69.7008 33.1229C69.7008 31.3267 70.4806 29.8885 72.0723 29.8885C73.6383 29.8885 74.4181 31.3267 74.4181 33.1229C74.4181 34.919 73.6383 36.3381 72.0723 36.3381ZM83.0107 38.1918C85.8871 38.1918 87.7152 36.1655 87.7152 33.1293C87.7152 30.0866 85.8871 28.054 83.0107 28.054C80.1342 28.054 78.3061 30.0866 78.3061 33.1293C78.3061 36.1655 80.1342 38.1918 83.0107 38.1918ZM83.0234 36.3381C81.4318 36.3381 80.652 34.919 80.652 33.1229C80.652 31.3267 81.4318 29.8885 83.0234 29.8885C84.5895 29.8885 85.3693 31.3267 85.3693 33.1229C85.3693 34.919 84.5895 36.3381 83.0234 36.3381ZM93.949 41.8864C96.6017 41.8864 98.5577 40.6719 98.5577 38.1598V28.1818H96.2757V29.8054H96.1479C95.7963 29.0959 95.0613 28.054 93.329 28.054C91.0598 28.054 89.2765 29.831 89.2765 33.0589C89.2765 36.2614 91.0598 37.8594 93.3226 37.8594C95.0037 37.8594 95.79 36.9581 96.1479 36.2358H96.263V38.0959C96.263 39.5405 95.3042 40.1349 93.9874 40.1349C92.5939 40.1349 91.9803 39.4766 91.699 38.9013L89.6152 39.4062C90.0371 40.7805 91.4498 41.8864 93.949 41.8864ZM93.9682 36.044C92.4405 36.044 91.6351 34.8551 91.6351 33.0462C91.6351 31.2628 92.4277 29.9524 93.9682 29.9524C95.4576 29.9524 96.2757 31.1861 96.2757 33.0462C96.2757 34.919 95.4448 36.044 93.9682 36.044ZM103.243 24.9091H100.929V38H103.243V24.9091ZM109.969 38.1918C112.257 38.1918 113.83 37.0732 114.239 35.3665L112.078 35.1236C111.765 35.9545 110.998 36.3892 110.001 36.3892C108.505 36.3892 107.515 35.4048 107.495 33.7237H114.335V33.0142C114.335 29.5689 112.264 28.054 109.848 28.054C107.035 28.054 105.201 30.1186 105.201 33.1484C105.201 36.2294 107.01 38.1918 109.969 38.1918ZM107.502 32.1641C107.572 30.9112 108.499 29.8565 109.88 29.8565C111.209 29.8565 112.104 30.8281 112.117 32.1641H107.502ZM120.757 41.6818H123.071V36.4531H123.167C123.531 37.169 124.292 38.1726 125.98 38.1726C128.294 38.1726 130.026 36.3381 130.026 33.1037C130.026 29.831 128.242 28.054 125.973 28.054C124.241 28.054 123.519 29.0959 123.167 29.8054H123.033V28.1818H120.757V41.6818ZM123.026 33.0909C123.026 31.1861 123.845 29.9524 125.334 29.9524C126.874 29.9524 127.667 31.2628 127.667 33.0909C127.667 34.9318 126.862 36.2741 125.334 36.2741C123.857 36.2741 123.026 34.9957 123.026 33.0909ZM134.321 24.9091H132.007V38H134.321V24.9091ZM139.526 38.1982C141.066 38.1982 141.987 37.4759 142.409 36.6513H142.485V38H144.71V31.429C144.71 28.8338 142.594 28.054 140.721 28.054C138.657 28.054 137.071 28.9744 136.56 30.7642L138.721 31.071C138.951 30.3999 139.603 29.8246 140.734 29.8246C141.808 29.8246 142.396 30.3743 142.396 31.3395V31.3778C142.396 32.0426 141.699 32.0746 139.967 32.2599C138.062 32.4645 136.24 33.0334 136.24 35.245C136.24 37.1754 137.653 38.1982 139.526 38.1982ZM140.127 36.4979C139.162 36.4979 138.471 36.0568 138.471 35.2067C138.471 34.3182 139.245 33.9474 140.28 33.8004C140.887 33.7173 142.102 33.5639 142.402 33.321V34.478C142.402 35.571 141.52 36.4979 140.127 36.4979ZM148.123 41.6818C149.926 41.6818 150.968 40.755 151.524 39.1889L155.468 28.1946L152.994 28.1818L150.725 35.5966H150.623L148.36 28.1818H145.905L149.466 38.2045L149.267 38.7351C148.839 39.8537 148.162 39.9304 147.152 39.6364L146.615 41.4389C146.928 41.5668 147.49 41.6818 148.123 41.6818Z" fill="white"/>
</svg>
