<svg width="150" height="50" viewBox="0 0 150 50" fill="none" xmlns="http://www.w3.org/2000/svg">
<rect width="150" height="50" rx="6" fill="#1D2127"/>
<path d="M35.2292 25.8255C35.216 23.4484 36.2328 21.6569 38.286 20.3359C37.1376 18.5932 35.4003 17.6347 33.1102 17.45C30.9418 17.2687 28.5694 18.7884 27.7007 18.7884C26.7827 18.7884 24.6834 17.5127 23.0316 17.5127C19.6227 17.5685 16 20.3917 16 26.1357C16 27.8331 16.2928 29.5863 16.8785 31.3917C17.6617 33.7688 20.4848 39.593 23.4298 39.4989C24.9697 39.4605 26.0588 38.3417 28.0627 38.3417C30.0073 38.3417 31.0142 39.4989 32.7318 39.4989C35.703 39.4536 38.2564 34.1592 39 31.7751C35.0153 29.7849 35.2292 25.9475 35.2292 25.8255ZM31.771 15.1949C33.4392 13.0967 33.2878 11.1866 33.2385 10.5C31.7644 10.5906 30.0599 11.5631 29.0893 12.7586C28.0199 14.0412 27.3914 15.6271 27.5263 17.4151C29.1189 17.5441 30.5732 16.6762 31.771 15.1949Z" fill="white"/>
<path d="M53.125 17C55.3409 17 56.5909 15.6222 56.5909 13.3494C56.5909 11.0909 55.3409 9.72727 53.2244 9.72727H50.8807V17H53.125ZM51.7614 16.2188V10.5085H53.1676C54.8722 10.5085 55.7386 11.5881 55.7386 13.3494C55.7386 15.125 54.8722 16.2188 53.0682 16.2188H51.7614ZM60.1705 17.1136C61.6477 17.1136 62.642 15.9915 62.642 14.3011C62.642 12.5966 61.6477 11.4744 60.1705 11.4744C58.6932 11.4744 57.6989 12.5966 57.6989 14.3011C57.6989 15.9915 58.6932 17.1136 60.1705 17.1136ZM60.1705 16.3608C59.0483 16.3608 58.5369 15.3949 58.5369 14.3011C58.5369 13.2074 59.0483 12.2273 60.1705 12.2273C61.2926 12.2273 61.804 13.2074 61.804 14.3011C61.804 15.3949 61.2926 16.3608 60.1705 16.3608ZM64.9716 17H65.7955L66.9886 12.8097H67.0739L68.267 17H69.0909L70.7528 11.5455H69.8722L68.6932 15.7074H68.6364L67.4858 11.5455H66.5909L65.4261 15.7216H65.3693L64.1903 11.5455H63.3097L64.9716 17ZM72.6989 13.7188C72.6989 12.767 73.2884 12.2273 74.0909 12.2273C74.8686 12.2273 75.3409 12.7351 75.3409 13.5909V17H76.179V13.5341C76.179 12.142 75.4368 11.4744 74.3324 11.4744C73.5085 11.4744 72.9972 11.8438 72.7415 12.3977H72.6705V11.5455H71.8608V17H72.6989V13.7188ZM78.5485 9.72727H77.7104V17H78.5485V9.72727ZM82.2994 17.1136C83.7766 17.1136 84.771 15.9915 84.771 14.3011C84.771 12.5966 83.7766 11.4744 82.2994 11.4744C80.8221 11.4744 79.8278 12.5966 79.8278 14.3011C79.8278 15.9915 80.8221 17.1136 82.2994 17.1136ZM82.2994 16.3608C81.1772 16.3608 80.6658 15.3949 80.6658 14.3011C80.6658 13.2074 81.1772 12.2273 82.2994 12.2273C83.4215 12.2273 83.9329 13.2074 83.9329 14.3011C83.9329 15.3949 83.4215 16.3608 82.2994 16.3608ZM87.6554 17.1278C88.6071 17.1278 89.1042 16.6165 89.2747 16.2614H89.3173V17H90.1554V13.4062C90.1554 11.6733 88.8343 11.4744 88.1383 11.4744C87.3145 11.4744 86.377 11.7585 85.9508 12.7528L86.7463 13.0369C86.9309 12.6392 87.3677 12.2131 88.1667 12.2131C88.9373 12.2131 89.3173 12.6214 89.3173 13.321V13.3494C89.3173 13.7543 88.9054 13.7188 87.911 13.8466C86.899 13.978 85.7946 14.2017 85.7946 15.4517C85.7946 16.517 86.6184 17.1278 87.6554 17.1278ZM87.7832 16.375C87.1156 16.375 86.6326 16.0767 86.6326 15.4943C86.6326 14.8551 87.215 14.6562 87.8684 14.571C88.2235 14.5284 89.1752 14.429 89.3173 14.2585V15.0256C89.3173 15.7074 88.7775 16.375 87.7832 16.375ZM93.7447 17.1136C94.7958 17.1136 95.1509 16.4602 95.3356 16.1619H95.435V17H96.2447V9.72727H95.4066V12.4119H95.3356C95.1509 12.1278 94.8242 11.4744 93.7589 11.4744C92.381 11.4744 91.4293 12.5682 91.4293 14.2869C91.4293 16.0199 92.381 17.1136 93.7447 17.1136ZM93.8583 16.3608C92.8072 16.3608 92.2674 15.4375 92.2674 14.2727C92.2674 13.1222 92.793 12.2273 93.8583 12.2273C94.881 12.2273 95.4208 13.0511 95.4208 14.2727C95.4208 15.5085 94.8668 16.3608 93.8583 16.3608ZM102.924 17.1136C104.402 17.1136 105.396 15.9915 105.396 14.3011C105.396 12.5966 104.402 11.4744 102.924 11.4744C101.447 11.4744 100.453 12.5966 100.453 14.3011C100.453 15.9915 101.447 17.1136 102.924 17.1136ZM102.924 16.3608C101.802 16.3608 101.291 15.3949 101.291 14.3011C101.291 13.2074 101.802 12.2273 102.924 12.2273C104.047 12.2273 104.558 13.2074 104.558 14.3011C104.558 15.3949 104.047 16.3608 102.924 16.3608ZM107.513 13.7188C107.513 12.767 108.103 12.2273 108.905 12.2273C109.683 12.2273 110.155 12.7351 110.155 13.5909V17H110.993V13.5341C110.993 12.142 110.251 11.4744 109.147 11.4744C108.323 11.4744 107.812 11.8438 107.556 12.3977H107.485V11.5455H106.675V17H107.513V13.7188ZM117.71 11.5455H116.545V10.2386H115.707V11.5455H114.883V12.2557H115.707V15.6648C115.707 16.6165 116.474 17.071 117.184 17.071C117.496 17.071 117.695 17.0142 117.809 16.9716L117.638 16.2188C117.567 16.233 117.454 16.2614 117.269 16.2614C116.9 16.2614 116.545 16.1477 116.545 15.4375V12.2557H117.71V11.5455ZM119.925 13.7188C119.925 12.767 120.533 12.2273 121.36 12.2273C122.148 12.2273 122.624 12.7244 122.624 13.5909V17H123.462V13.5341C123.462 12.1314 122.717 11.4744 121.602 11.4744C120.742 11.4744 120.252 11.8331 119.996 12.3977H119.925V9.72727H119.087V17H119.925V13.7188ZM127.282 17.1136C128.39 17.1136 129.2 16.5597 129.456 15.7358L128.646 15.5085C128.433 16.0767 127.939 16.3608 127.282 16.3608C126.299 16.3608 125.621 15.7251 125.581 14.5568H129.541V14.2017C129.541 12.1705 128.334 11.4744 127.197 11.4744C125.72 11.4744 124.74 12.6392 124.74 14.3153C124.74 15.9915 125.706 17.1136 127.282 17.1136ZM125.581 13.8324C125.638 12.9837 126.238 12.2273 127.197 12.2273C128.106 12.2273 128.689 12.9091 128.689 13.8324H125.581Z" fill="white"/>
<path d="M52.9723 38L54.0526 34.772H58.9744L60.0611 38H62.5923L57.9773 24.9091H55.0497L50.4411 38H52.9723ZM54.6918 32.8672L56.4624 27.5938H56.5646L58.3352 32.8672H54.6918ZM64.2143 41.6818H66.5282V36.4531H66.6241C66.9885 37.169 67.7491 38.1726 69.4366 38.1726C71.7505 38.1726 73.4828 36.3381 73.4828 33.1037C73.4828 29.831 71.6994 28.054 69.4302 28.054C67.698 28.054 66.9757 29.0959 66.6241 29.8054H66.4899V28.1818H64.2143V41.6818ZM66.4835 33.0909C66.4835 31.1861 67.3017 29.9524 68.791 29.9524C70.3315 29.9524 71.1241 31.2628 71.1241 33.0909C71.1241 34.9318 70.3187 36.2741 68.791 36.2741C67.3145 36.2741 66.4835 34.9957 66.4835 33.0909ZM75.4643 41.6818H77.7782V36.4531H77.8741C78.2385 37.169 78.9991 38.1726 80.6866 38.1726C83.0005 38.1726 84.7328 36.3381 84.7328 33.1037C84.7328 29.831 82.9494 28.054 80.6802 28.054C78.948 28.054 78.2257 29.0959 77.8741 29.8054H77.7399V28.1818H75.4643V41.6818ZM77.7335 33.0909C77.7335 31.1861 78.5517 29.9524 80.041 29.9524C81.5815 29.9524 82.3741 31.2628 82.3741 33.0909C82.3741 34.9318 81.5687 36.2741 80.041 36.2741C78.5645 36.2741 77.7335 34.9957 77.7335 33.0909ZM98.3958 28.5078H100.678C100.633 26.2962 98.7473 24.7301 95.9604 24.7301C93.2118 24.7301 91.1472 26.277 91.1536 28.5909C91.1536 30.4702 92.4895 31.5504 94.6436 32.1065L96.133 32.4901C97.5456 32.848 98.4789 33.2891 98.4853 34.3054C98.4789 35.424 97.4178 36.1719 95.8709 36.1719C94.388 36.1719 93.2374 35.5071 93.1415 34.1328H90.8084C90.9043 36.7344 92.8411 38.1982 95.8901 38.1982C99.0286 38.1982 100.85 36.6321 100.857 34.3246C100.85 32.0554 98.9775 31.0199 97.0087 30.5533L95.7814 30.2464C94.7076 29.9908 93.5442 29.5369 93.557 28.4439C93.5634 27.4595 94.4455 26.7372 95.9284 26.7372C97.3411 26.7372 98.2743 27.3956 98.3958 28.5078ZM107.771 28.1818H105.835V25.8295H103.521V28.1818H102.127V29.9716H103.521V35.4304C103.508 37.2777 104.85 38.1854 106.589 38.1342C107.247 38.1151 107.701 37.9872 107.95 37.9041L107.56 36.0952C107.433 36.1271 107.17 36.1847 106.883 36.1847C106.301 36.1847 105.835 35.9801 105.835 35.0469V29.9716H107.771V28.1818ZM113.884 38.1918C116.76 38.1918 118.588 36.1655 118.588 33.1293C118.588 30.0866 116.76 28.054 113.884 28.054C111.007 28.054 109.179 30.0866 109.179 33.1293C109.179 36.1655 111.007 38.1918 113.884 38.1918ZM113.896 36.3381C112.305 36.3381 111.525 34.919 111.525 33.1229C111.525 31.3267 112.305 29.8885 113.896 29.8885C115.463 29.8885 116.242 31.3267 116.242 33.1229C116.242 34.919 115.463 36.3381 113.896 36.3381ZM120.552 38H122.866V32.228C122.866 30.9815 123.806 30.0994 125.078 30.0994C125.468 30.0994 125.953 30.1697 126.152 30.2337V28.1051C125.941 28.0668 125.576 28.0412 125.321 28.0412C124.196 28.0412 123.256 28.6804 122.898 29.8182H122.796V28.1818H120.552V38ZM131.631 38.1918C133.92 38.1918 135.492 37.0732 135.901 35.3665L133.741 35.1236C133.427 35.9545 132.66 36.3892 131.663 36.3892C130.167 36.3892 129.177 35.4048 129.157 33.7237H135.997V33.0142C135.997 29.5689 133.926 28.054 131.51 28.054C128.697 28.054 126.863 30.1186 126.863 33.1484C126.863 36.2294 128.672 38.1918 131.631 38.1918ZM129.164 32.1641C129.234 30.9112 130.161 29.8565 131.542 29.8565C132.871 29.8565 133.766 30.8281 133.779 32.1641H129.164Z" fill="white"/>
</svg>
