<svg width="33" height="33" viewBox="0 0 33 33" fill="none" xmlns="http://www.w3.org/2000/svg">
<path d="M27.6154 30.8068H8.76923C7.9408 30.8068 7.26923 30.1352 7.26923 29.3068V3.69141C7.26923 2.86298 7.9408 2.19141 8.76923 2.19141H20.9396L29.1154 10.776V29.3068C29.1154 30.1352 28.4438 30.8068 27.6154 30.8068Z" fill="#3148EA" fill-opacity="0.07" stroke="#D2D5DE"/>
<path d="M9.16497 18.1457V20.1496H10.0898C10.8362 20.1496 11.1689 19.7305 11.1689 19.1409C11.1689 18.5514 10.8362 18.1457 10.0844 18.1457H9.16497Z" fill="#EA3147"/>
<path d="M14.0659 18.1755V21.9778H14.8907C16.0454 21.9778 16.6323 21.345 16.6323 20.0712C16.6323 18.8029 16.0454 18.1755 14.9205 18.1755H14.0659Z" fill="#EA3147"/>
<path fill-rule="evenodd" clip-rule="evenodd" d="M5.07692 15.2305C4.14229 15.2305 3.38462 15.9881 3.38462 16.9228V23.692C3.38462 24.6266 4.14229 25.3843 5.07693 25.3843H25.3846C26.3193 25.3843 27.0769 24.6266 27.0769 23.692V16.9228C27.0769 15.9881 26.3193 15.2305 25.3846 15.2305H5.07692ZM9.16497 22.8459H8.16166V17.3074H10.2386C11.5123 17.3074 12.1911 18.0835 12.1911 19.1409C12.1911 20.2064 11.5042 20.9745 10.2251 20.9745H9.16497V22.8459ZM17.6275 20.0712C17.6275 21.802 16.6269 22.8459 14.9394 22.8459H13.0626V17.3074H14.9772C16.6269 17.3074 17.6275 18.3459 17.6275 20.0712ZM19.5841 22.8459H18.5808V17.3074H22.1288V18.1484H19.5841V19.652H21.8854V20.4931H19.5841V22.8459Z" fill="#EA3147"/>
</svg>
