<svg width="26" height="26" viewBox="0 0 26 26" fill="none" xmlns="http://www.w3.org/2000/svg">
<path d="M13 25.5C6.09644 25.5 0.5 19.9036 0.5 13C0.5 6.09644 6.09644 0.5 13 0.5C19.9036 0.5 25.5 6.09644 25.5 13C25.4924 19.9004 19.9004 25.4924 13 25.5ZM3 13.215C3.05915 18.7166 7.55138 23.1369 13.0532 23.1075C18.555 23.0778 22.9994 18.6094 22.9994 13.1075C22.9994 7.60563 18.555 3.13722 13.0532 3.1075C7.55138 3.07807 3.05915 7.49845 3 13V13.215ZM10.5 18.625V7.375L18 13L10.5 18.625Z" fill="#AAB0B9"/>
</svg>
