<svg width="21" height="13" viewBox="0 0 21 13" fill="none" xmlns="http://www.w3.org/2000/svg">
<path fill-rule="evenodd" clip-rule="evenodd" d="M5.23702 2.75L2.57035 6.75L5.23702 10.75H18.1666V2.75H5.23702ZM4.70183 12.75C4.36748 12.75 4.05525 12.5829 3.86978 12.3047L0.536449 7.3047C0.312516 6.9688 0.312517 6.5312 0.53645 6.1953L3.86978 1.1953C4.05525 0.917101 4.36748 0.75 4.70183 0.75H19.1666C19.7189 0.75 20.1666 1.19772 20.1666 1.75V11.75C20.1666 12.3023 19.7189 12.75 19.1666 12.75H4.70183Z" fill="#0083C7"/>
<path fill-rule="evenodd" clip-rule="evenodd" d="M12.5809 6.75L13.1666 7.33579C13.5572 7.72631 13.5572 8.35948 13.1666 8.75C12.7761 9.14052 12.143 9.14052 11.7524 8.75L11.1666 8.16421L10.5809 8.75C10.1903 9.14052 9.55717 9.14052 9.16665 8.75C8.77613 8.35948 8.77613 7.72631 9.16665 7.33579L9.75244 6.75L9.16665 6.16421C8.77613 5.77369 8.77613 5.14052 9.16665 4.75C9.55717 4.35948 10.1903 4.35948 10.5809 4.75L11.1666 5.33579L11.7524 4.75C12.143 4.35948 12.7761 4.35948 13.1666 4.75C13.5572 5.14052 13.5572 5.77369 13.1666 6.16421L12.5809 6.75Z" fill="#0083C7"/>
</svg>
