<svg width="30" height="30" viewBox="0 0 30 30" fill="none" xmlns="http://www.w3.org/2000/svg">
<path fill-rule="evenodd" clip-rule="evenodd" d="M8.4999 7H10.9999V9H8.9999V11H6.9999V8.5C6.9999 7.67157 7.67148 7 8.4999 7ZM8.9999 21H10.9999V23H8.4999C7.67148 23 6.9999 22.3284 6.9999 21.5V19H8.9999V21ZM18.9999 21V23H21.4999C22.3283 23 22.9999 22.3284 22.9999 21.5V19H20.9999V21H18.9999ZM18.9999 7V9H20.9999V11H22.9999V8.5C22.9999 7.67157 22.3283 7 21.4999 7H18.9999ZM6.3 14.0908C6.13431 14.0908 6 14.2251 6 14.3908V15.609C6 15.7747 6.13431 15.909 6.3 15.909H23.7C23.8657 15.909 24 15.7747 24 15.609V14.3908C24 14.2251 23.8657 14.0908 23.7 14.0908H6.3Z" fill="#5C5590"/>
</svg>
