<svg width="25" height="25" viewBox="0 0 25 25" fill="none" xmlns="http://www.w3.org/2000/svg">
<path d="M19.177 20.107L13.462 14.391C10.9196 16.1985 7.41642 15.7564 5.40285 13.3739C3.38929 10.9915 3.53714 7.46361 5.74298 5.25802C7.94824 3.05147 11.4765 2.90298 13.8594 4.91644C16.2422 6.92989 16.6846 10.4335 14.877 12.976L20.592 18.692L19.178 20.106L19.177 20.107ZM9.98498 5.50001C8.08868 5.49958 6.45267 6.8307 6.06745 8.68745C5.68224 10.5442 6.65369 12.4163 8.39366 13.1703C10.1336 13.9242 12.1639 13.3528 13.2552 11.8021C14.3466 10.2513 14.199 8.14734 12.902 6.76402L13.507 7.36402L12.825 6.68402L12.813 6.67202C12.0648 5.9192 11.0464 5.49715 9.98498 5.50001Z" fill="#CBCED2"/>
</svg>
