<svg width="16" height="19" viewBox="0 0 16 19" fill="none" xmlns="http://www.w3.org/2000/svg">
<path d="M15 19H1C0.447715 19 0 18.5523 0 18V8.35701C0.0154912 8.11195 0.119639 7.88091 0.293 7.70701L7.293 0.707013C7.48057 0.519236 7.73509 0.413727 8.0005 0.413727C8.26591 0.413727 8.52043 0.519236 8.708 0.707013L15.708 7.70701C15.8957 7.89429 16.0009 8.14883 16 8.41401V18C16 18.5523 15.5523 19 15 19ZM8 2.82801L2 8.82801V17H14V8.82801L8 2.82801ZM6.5 15.559L3.794 12.859L5.2 11.441L6.5 12.733L10.8 8.44101L12.212 9.85701L6.5 15.558V15.559Z" fill="#CBCED2"/>
</svg>
