<svg width="20" height="18" viewBox="0 0 20 18" fill="none" xmlns="http://www.w3.org/2000/svg">
<path d="M9 4C9 6.20914 7.20914 8 5 8C2.79086 8 1 6.20914 1 4C1 1.79086 2.79086 0 5 0C7.20914 0 9 1.79086 9 4ZM7 4C7 2.89543 6.10457 2 5 2C3.89543 2 3 2.89543 3 4C3 5.10457 3.89543 6 5 6C6.10457 6 7 5.10457 7 4Z" fill="#CBCED2"/>
<path d="M19 8.5C19 10.433 17.433 12 15.5 12C13.567 12 12 10.433 12 8.5C12 6.567 13.567 5 15.5 5C17.433 5 19 6.567 19 8.5ZM17 8.5C17 7.67157 16.3284 7 15.5 7C14.6716 7 14 7.67157 14 8.5C14 9.32843 14.6716 10 15.5 10C16.3284 10 17 9.32843 17 8.5Z" fill="#CBCED2"/>
<path d="M8 18V14C8 12.3431 6.65685 11 5 11C3.34315 11 2 12.3431 2 14V18H0V14C0 11.2386 2.23858 9 5 9C7.76142 9 10 11.2386 10 14V18H8Z" fill="#CBCED2"/>
<path d="M18 17.5V18H20V17.5C20 15.0147 17.9853 13 15.5 13C13.0147 13 11 15.0147 11 17.5V18H13V17.5C13 16.1193 14.1193 15 15.5 15C16.8807 15 18 16.1193 18 17.5Z" fill="#CBCED2"/>

</svg>
