<svg width="39" height="39" viewBox="0 0 39 39" fill="none" xmlns="http://www.w3.org/2000/svg">
<path fill-rule="evenodd" clip-rule="evenodd" d="M16.5838 38.0246C16.9279 38.0783 17.275 38.1227 17.625 38.1574C18.2417 38.2187 18.8672 38.25 19.5 38.25C20.1328 38.25 20.7583 38.2187 21.375 38.1574C21.725 38.1227 22.0721 38.0783 22.4162 38.0246C27.4245 37.2425 31.776 34.478 34.643 30.559C35.0381 30.0189 35.405 29.4568 35.7416 28.875C37.0413 26.6281 37.8882 24.0865 38.1574 21.375C38.2187 20.7583 38.25 20.1328 38.25 19.5C38.25 18.8672 38.2187 18.2417 38.1574 17.625C37.8882 14.9135 37.0413 12.3719 35.7416 10.125C35.4069 9.54643 35.0422 8.98741 34.6496 8.45006C31.7744 4.51489 27.4031 1.74213 22.3727 0.96869C22.0429 0.917981 21.7102 0.875864 21.375 0.842579C20.7583 0.781349 20.1328 0.75 19.5 0.75C18.8672 0.75 18.2417 0.781349 17.625 0.842579C17.2898 0.875864 16.9571 0.91798 16.6273 0.96869C11.5963 1.74221 7.22466 4.51548 4.3495 8.45131C3.95725 8.98828 3.59284 9.54688 3.25842 10.125C1.95868 12.3719 1.1118 14.9135 0.842579 17.625C0.781349 18.2417 0.75 18.8672 0.75 19.5C0.75 20.1328 0.781349 20.7583 0.842579 21.375C1.1118 24.0865 1.95868 26.6281 3.25842 28.875C3.59584 29.4583 3.96379 30.0218 4.36008 30.5632C7.22709 34.48 11.5773 37.2428 16.5838 38.0246ZM8.57186 29.7758C9.75762 31.0365 11.1581 32.0911 12.7145 32.8817C12.0543 31.7498 11.4854 30.5854 11.0075 29.3972C10.2157 29.509 9.40534 29.6352 8.57186 29.7758ZM14.9007 28.9523C15.6181 30.5243 16.5259 32.0415 17.625 33.4757V28.7844C16.7276 28.8181 15.8224 28.874 14.9007 28.9523ZM17.625 25.0321C16.3054 25.0786 14.9717 25.1703 13.6 25.3072C13.26 24.0129 13.0383 22.6975 12.9344 21.375H17.625V25.0321ZM21.375 21.375V25.0228C22.7016 25.0632 24.0372 25.1499 25.4063 25.2833C25.7427 23.9967 25.9623 22.6894 26.0656 21.375H21.375ZM26.0459 17.625H21.375V14.1549C22.6945 14.1064 24.0247 14.0084 25.3884 13.8617C25.7142 15.1027 25.9335 16.3612 26.0459 17.625ZM29.8265 21.375C29.7284 22.8445 29.5061 24.3077 29.1587 25.7503C30.3428 25.9273 31.5641 26.1356 32.8359 26.3754C33.6269 24.845 34.1622 23.1606 34.3843 21.375H29.8265ZM34.3843 17.625H29.8077C29.6979 16.1912 29.4704 14.763 29.1259 13.3537C30.3284 13.1589 31.5682 12.9304 32.8585 12.6685C33.6371 14.1871 34.1643 15.8565 34.3843 17.625ZM30.505 9.3066C29.2728 7.97679 27.8037 6.87169 26.1651 6.05781C26.8638 7.2528 27.4647 8.48375 27.9673 9.74034C28.7899 9.61337 29.6341 9.46886 30.505 9.3066ZM24.1006 10.2218C23.3817 8.62301 22.4728 7.07682 21.375 5.61202V10.4022C22.2709 10.3668 23.1764 10.3068 24.1006 10.2218ZM12.8349 6.0578C11.1932 6.87324 9.72156 7.98099 8.48793 9.3142C9.35899 9.47767 10.204 9.62316 11.0286 9.75078C11.532 8.49057 12.1343 7.25611 12.8349 6.0578ZM9.87153 13.3641C8.66683 13.1682 7.42712 12.9381 6.1385 12.6743C5.36152 14.1914 4.83537 15.8587 4.61568 17.625H9.1923C9.30187 16.1948 9.52851 14.7701 9.87153 13.3641ZM12.9541 17.625C13.0662 16.3646 13.2847 15.1094 13.609 13.8716C14.9684 14.0168 16.2993 14.1129 17.625 14.1589V17.625H12.9541ZM17.625 10.4065C16.725 10.3729 15.8183 10.3143 14.8954 10.2306C15.615 8.62871 16.5252 7.07952 17.625 5.61202V10.4065ZM9.17353 21.375C9.27218 22.8536 9.49668 24.3258 9.84779 25.777C8.66596 25.9526 7.44519 26.1576 6.17273 26.3921C5.37696 24.8573 4.83858 23.1671 4.61568 21.375H9.17353ZM30.4479 29.7547C29.6122 29.6113 28.799 29.4833 28.0032 29.3706C27.5231 30.568 26.9507 31.7414 26.2855 32.8817C27.8505 32.0867 29.258 31.0247 30.4479 29.7547ZM21.375 33.4757C22.479 32.0351 23.3899 30.5109 24.1089 28.9314C23.1867 28.8561 22.2785 28.8039 21.375 28.7746V33.4757Z" fill="white"/>

</svg>
