<svg width="19" height="20" viewBox="0 0 19 20" fill="none" xmlns="http://www.w3.org/2000/svg">
<path d="M9.5 20L6.5 17H2.5C1.39543 17 0.5 16.1046 0.5 15V2C0.5 0.89543 1.39543 0 2.5 0H16.5C17.6046 0 18.5 0.89543 18.5 2V15C18.5 16.1046 17.6046 17 16.5 17H12.5L9.5 20ZM2.5 2V15H7.5L9.5 17L11.5 15H16.5V2H2.5ZM13.5 12.986H5.5V12.6C5.61835 10.5051 7.40424 8.89779 9.5 9C11.5958 8.89779 13.3816 10.5051 13.5 12.6V12.985V12.986ZM9.5 8C8.96407 8.01862 8.44447 7.8139 8.06529 7.43471C7.6861 7.05553 7.48138 6.53593 7.5 6C7.48168 5.46416 7.6865 4.94474 8.06562 4.56562C8.44474 4.1865 8.96416 3.98168 9.5 4C10.0358 3.98168 10.5553 4.1865 10.9344 4.56562C11.3135 4.94474 11.5183 5.46416 11.5 6C11.5186 6.53593 11.3139 7.05553 10.9347 7.43471C10.5555 7.8139 10.0359 8.01862 9.5 8Z" fill="#CBCED2"/>
</svg>
