<svg width="20" height="16" viewBox="0 0 20 16" fill="none" xmlns="http://www.w3.org/2000/svg">
<path fill-rule="evenodd" clip-rule="evenodd" d="M0 3C0 1.34315 1.34315 0 3 0H15C16.1046 0 17 0.895431 17 2V4H18.28C19.2299 4 20 4.77007 20 5.72V14C20 15.1046 19.1046 16 18 16H2C0.89543 16 0 15.1046 0 14V3ZM3 2H14C14.5523 2 15 2.44772 15 3V4H3C2.44772 4 2 3.55228 2 3C2 2.44772 2.44772 2 3 2ZM2 6V13C2 13.5523 2.44772 14 3 14H17C17.5523 14 18 13.5523 18 13V11H14C13.4477 11 13 10.5523 13 10C13 9.44772 13.4477 9 14 9H18V7C18 6.44772 17.5523 6 17 6H2Z" fill="#CBCED2"/>
</svg>
