<svg width="25" height="25" viewBox="0 0 25 25" fill="none" xmlns="http://www.w3.org/2000/svg">
<path d="M14.3199 22.5H10.6799C10.21 22.5 9.80347 22.173 9.70292 21.714L9.29592 19.83C8.75297 19.5921 8.23814 19.2946 7.76092 18.943L5.92392 19.528C5.47592 19.6709 4.9889 19.4823 4.75392 19.075L2.92992 15.924C2.69751 15.5165 2.77758 15.0025 3.12292 14.685L4.54792 13.385C4.48312 12.7961 4.48312 12.2019 4.54792 11.613L3.12292 10.316C2.77707 9.99837 2.69697 9.48372 2.92992 9.076L4.74992 5.923C4.98491 5.5157 5.47192 5.32714 5.91992 5.47L7.75692 6.055C8.00098 5.87416 8.25505 5.70722 8.51792 5.555C8.77026 5.41269 9.02995 5.28385 9.29592 5.169L9.70392 3.287C9.80399 2.82797 10.2101 2.50049 10.6799 2.5H14.3199C14.7897 2.50049 15.1958 2.82797 15.2959 3.287L15.7079 5.17C15.9887 5.29352 16.2622 5.43308 16.5269 5.588C16.7739 5.73081 17.0126 5.88739 17.2419 6.057L19.0799 5.472C19.5276 5.32967 20.014 5.51816 20.2489 5.925L22.0689 9.078C22.3013 9.48548 22.2213 9.99951 21.8759 10.317L20.4509 11.617C20.5157 12.2059 20.5157 12.8001 20.4509 13.389L21.8759 14.689C22.2213 15.0065 22.3013 15.5205 22.0689 15.928L20.2489 19.081C20.014 19.4878 19.5276 19.6763 19.0799 19.534L17.2419 18.949C17.0093 19.1203 16.7677 19.2789 16.5179 19.424C16.2557 19.5759 15.9853 19.7131 15.7079 19.835L15.2959 21.714C15.1954 22.1726 14.7894 22.4996 14.3199 22.5ZM8.11992 16.729L8.93992 17.329C9.12477 17.4652 9.31743 17.5904 9.51692 17.704C9.70462 17.8127 9.89788 17.9115 10.0959 18L11.0289 18.409L11.4859 20.5H13.5159L13.9729 18.408L14.9059 17.999C15.3132 17.8194 15.6998 17.5961 16.0589 17.333L16.8799 16.733L18.9209 17.383L19.9359 15.625L18.3529 14.182L18.4649 13.17C18.5141 12.7274 18.5141 12.2806 18.4649 11.838L18.3529 10.826L19.9369 9.38L18.9209 7.621L16.8799 8.271L16.0589 7.671C15.6997 7.40671 15.3132 7.18175 14.9059 7L13.9729 6.591L13.5159 4.5H11.4859L11.0269 6.592L10.0959 7C9.89772 7.08704 9.70444 7.18486 9.51692 7.293C9.31866 7.40633 9.12701 7.53086 8.94292 7.666L8.12192 8.266L6.08192 7.616L5.06492 9.38L6.64792 10.821L6.53592 11.834C6.48672 12.2766 6.48672 12.7234 6.53592 13.166L6.64792 14.178L5.06492 15.621L6.07992 17.379L8.11992 16.729ZM12.4959 16.5C10.2868 16.5 8.49592 14.7091 8.49592 12.5C8.49592 10.2909 10.2868 8.5 12.4959 8.5C14.7051 8.5 16.4959 10.2909 16.4959 12.5C16.4932 14.708 14.7039 16.4972 12.4959 16.5ZM12.4959 10.5C11.4033 10.5011 10.5138 11.3788 10.4981 12.4713C10.4825 13.5638 11.3465 14.4667 12.4386 14.4991C13.5307 14.5315 14.4468 13.6815 14.4959 12.59V12.99V12.5C14.4959 11.3954 13.6005 10.5 12.4959 10.5Z" fill="#CBCED2"/>
</svg>
