<svg width="20" height="20" viewBox="0 0 20 20" fill="none" xmlns="http://www.w3.org/2000/svg">
<path fill-rule="evenodd" clip-rule="evenodd" d="M5 5H2C0.895431 5 0 5.89543 0 7V18C0 19.1046 0.895431 20 2 20H18C19.1046 20 20 19.1046 20 18V7C20 5.89543 19.1046 5 18 5H15C15 2.23858 12.7614 0 10 0C7.23858 0 5 2.23858 5 5ZM13 5C13 3.34315 11.6569 2 10 2C8.34315 2 7 3.34315 7 5H13ZM2 7V10H18V7H2ZM2 12V18H18V12H11V13C11 13.5523 10.5523 14 10 14C9.44771 14 9 13.5523 9 13V12H2Z" fill="#CBCED2"/>

</svg>
