<svg width="18" height="18" viewBox="0 0 18 18" fill="none" xmlns="http://www.w3.org/2000/svg">
<path fill-rule="evenodd" clip-rule="evenodd" d="M12.45 3.425V2.375H11.55V3.425H9.5V4.325H10.0902C10.2014 4.92616 10.5325 5.38371 10.9508 5.72881C10.3423 5.87989 9.77268 5.925 9.5 5.925V6.825C9.95265 6.825 11.013 6.72952 11.9775 6.34458L12 6.33553L12.0225 6.34458C12.987 6.72952 14.0474 6.825 14.5 6.825V5.925C14.2273 5.925 13.6577 5.87989 13.0492 5.72881C13.4675 5.38371 13.7986 4.92616 13.9098 4.325H14.5V3.425H12.45ZM12 5.34681C11.5146 5.09501 11.161 4.76328 11.0189 4.325H12.9811C12.839 4.76328 12.4854 5.09501 12 5.34681Z" fill="#CBCED2"/>
<path fill-rule="evenodd" clip-rule="evenodd" d="M5.01233 12.5383L5.30021 11.6539H6.69983L6.98771 12.5383H7.8665L6.52938 8.65955H5.47256L4.13354 12.5383H5.01233ZM5.50854 11.0137L5.98582 9.54591H6.01612L6.49339 11.0137H5.50854Z" fill="#CBCED2"/>
<path fill-rule="evenodd" clip-rule="evenodd" d="M16 0C17.1046 0 18 0.89543 18 2V11.9522L14.1775 9.2H12V13.2C12 14.3046 11.1046 15.2 10 15.2L3.82255 15.2L0 17.9522V8C0 6.89543 0.895431 6 2 6H6V2C6 0.89543 6.89543 0 8 0H16ZM8 7.2L14.1775 7.2C14.5969 7.2 15.0057 7.33186 15.3461 7.57693L16 8.04777V2H8V7.2ZM6.16642 8H2V14.0478L2.65394 13.5769C2.99431 13.3319 3.40312 13.2 3.82255 13.2L10 13.2V9.2H8C7.17987 9.2 6.47504 8.70636 6.16642 8Z" fill="#CBCED2"/>
</svg>
