<svg width="32" height="32" viewBox="0 0 32 32" fill="none" xmlns="http://www.w3.org/2000/svg">
<path d="M0 16C0 7.16344 7.16344 0 16 0C24.8366 0 32 7.16344 32 16C32 24.8366 24.8366 32 16 32C7.16344 32 0 24.8366 0 16Z" fill="#6FA688"/>
<path fill-rule="evenodd" clip-rule="evenodd" d="M24.5333 7.46667H7.46666V11.7333H13.8667V12.8661C9.59148 13.1356 6.39999 14.1976 6.39999 15.4667C6.39999 16.7358 9.59148 17.7978 13.8667 18.0673V24.5333H18.1333V18.0673C22.4085 17.7978 25.6 16.7358 25.6 15.4667C25.6 14.1976 22.4085 13.1356 18.1333 12.8661V11.7333H24.5333V7.46667ZM7.99999 15.4667C7.99999 14.358 9.95554 13.1926 13.8667 12.8806V16.5333H18.1333V12.8809C22.3343 13.2189 24 14.5428 24 15.4667C24 16.3435 21.3342 16.8599 18.1333 17.016C16.7555 17.116 14.7148 17.0481 13.8667 17.0017C10.6658 16.8063 7.99999 16.193 7.99999 15.4667Z" fill="white"/>
</svg>
