<svg width="22" height="17" viewBox="0 0 22 17" fill="none" xmlns="http://www.w3.org/2000/svg">
<path d="M18.62 2.68799C19.5164 2.15208 20.1872 1.30823 20.507 0.313989C19.6647 0.813791 18.743 1.16587 17.782 1.35499C16.4496 -0.0544839 14.3385 -0.397485 12.6284 0.517645C10.9183 1.43277 10.0325 3.37948 10.466 5.26999C7.01562 5.09676 3.80098 3.4669 1.62202 0.785989C0.484855 2.74741 1.06597 5.25477 2.95002 6.51599C2.26873 6.49409 1.60254 6.30963 1.00702 5.97799C1.00702 5.99599 1.00702 6.01399 1.00702 6.03199C1.00741 8.07514 2.44739 9.83507 4.45002 10.24C3.81808 10.4119 3.15522 10.4372 2.51202 10.314C3.07522 12.0613 4.68557 13.2583 6.52102 13.294C5.00085 14.4871 3.12349 15.1342 1.19102 15.131C0.848486 15.1315 0.506226 15.1118 0.166016 15.072C2.12841 16.333 4.41238 17.0023 6.74502 17C9.99026 17.0223 13.109 15.7429 15.4037 13.448C17.6984 11.1531 18.9776 8.03424 18.955 4.78899C18.955 4.60299 18.9507 4.41799 18.942 4.23399C19.7825 3.62659 20.5078 2.87414 21.084 2.01199C20.301 2.35905 19.4705 2.58691 18.62 2.68799Z" fill="#D8DFE3"/>
</svg>
