<svg width="24" height="24" viewBox="0 0 24 24" fill="none" xmlns="http://www.w3.org/2000/svg">
<path d="M20 16H4V4H14.1C13.9653 3.34014 13.9653 2.65986 14.1 2H4C2.9 2 2 2.9 2 4V22L6 18H20C21.1 18 22 17.1 22 16V6.98C21.42 7.42 20.74 7.75 20 7.9V16Z" fill="#ffffff"/>
<path d="M19 6C20.6569 6 22 4.65685 22 3C22 1.34315 20.6569 0 19 0C17.3431 0 16 1.34315 16 3C16 4.65685 17.3431 6 19 6Z" fill="#ffffff"/>
<path d="M6 12H14V14H6V12ZM6 9H18V11H6V9ZM6 8H18V7.9C16.8126 7.64719 15.7573 6.97207 15.03 6H6V8Z" fill="#ffffff"/>
</svg>
