<svg width="25" height="25" viewBox="0 0 25 25" fill="none" xmlns="http://www.w3.org/2000/svg">
<path d="M7.5 8.5C7.5 5.73858 9.73858 3.5 12.5 3.5C15.2614 3.5 17.5 5.73858 17.5 8.5C17.5 11.2614 15.2614 13.5 12.5 13.5C9.73858 13.5 7.5 11.2614 7.5 8.5ZM12.5 11.5C14.1569 11.5 15.5 10.1569 15.5 8.5C15.5 6.84315 14.1569 5.5 12.5 5.5C10.8431 5.5 9.5 6.84315 9.5 8.5C9.5 10.1569 10.8431 11.5 12.5 11.5Z" fill="#CBCED2"/>
<path d="M6.84315 16.8431C5.34285 18.3434 4.5 20.3783 4.5 22.5H6.5C6.5 20.9087 7.13214 19.3826 8.25736 18.2574C9.38258 17.1321 10.9087 16.5 12.5 16.5C14.0913 16.5 15.6174 17.1321 16.7426 18.2574C17.8679 19.3826 18.5 20.9087 18.5 22.5H20.5C20.5 20.3783 19.6571 18.3434 18.1569 16.8431C16.6566 15.3429 14.6217 14.5 12.5 14.5C10.3783 14.5 8.34344 15.3429 6.84315 16.8431Z" fill="#CBCED2"/>
</svg>
