<svg width="21" height="17" viewBox="0 0 21 17" fill="none" xmlns="http://www.w3.org/2000/svg">
<path fill-rule="evenodd" clip-rule="evenodd" d="M0.5 3.5C0.5 1.84315 1.84315 0.5 3.5 0.5H15.5C16.6046 0.5 17.5 1.39543 17.5 2.5V4.5H18.78C19.7299 4.5 20.5 5.27007 20.5 6.22V14.5C20.5 15.6046 19.6046 16.5 18.5 16.5H2.5C1.39543 16.5 0.5 15.6046 0.5 14.5V3.5ZM3.5 2.5H14.5C15.0523 2.5 15.5 2.94772 15.5 3.5V4.5H3.5C2.94772 4.5 2.5 4.05228 2.5 3.5C2.5 2.94772 2.94772 2.5 3.5 2.5ZM2.5 6.5V13.5C2.5 14.0523 2.94772 14.5 3.5 14.5H17.5C18.0523 14.5 18.5 14.0523 18.5 13.5V11.5H14.5C13.9477 11.5 13.5 11.0523 13.5 10.5C13.5 9.94772 13.9477 9.5 14.5 9.5H18.5V7.5C18.5 6.94772 18.0523 6.5 17.5 6.5H2.5Z" fill="#D8DFE3"/>
</svg>
