<svg width="144" height="108" viewBox="0 0 144 108" fill="none" xmlns="http://www.w3.org/2000/svg">
<path fill-rule="evenodd" clip-rule="evenodd" d="M82.0901 54C82.0901 70.5685 68.964 84 52.7722 84C36.5804 84 23.4543 70.5685 23.4543 54C23.4543 37.4315 36.5804 24 52.7722 24C68.964 24 82.0901 37.4315 82.0901 54ZM70.363 54C70.363 63.9411 62.4873 72 52.7722 72C43.0571 72 35.1815 63.9411 35.1815 54C35.1815 44.0589 43.0571 36 52.7722 36C62.4873 36 70.363 44.0589 70.363 54Z" fill="white"/>
<path fill-rule="evenodd" clip-rule="evenodd" d="M0 54C0 83.8234 23.6269 108 52.7722 108H113.216L124.943 96H85.9445C88.5389 93.8517 90.9303 91.4569 93.0846 88.8503H131.931L144 76.5H100.759C103.832 69.6505 105.544 62.0299 105.544 54C105.544 24.1766 81.9175 0 52.7722 0C23.6269 0 0 24.1766 0 54ZM52.7722 96C75.4408 96 93.8173 77.196 93.8173 54C93.8173 30.804 75.4408 12 52.7722 12C30.1037 12 11.7272 30.804 11.7272 54C11.7272 77.196 30.1037 96 52.7722 96Z" fill="white"/>
</svg>
