<svg width="32" height="32" viewBox="0 0 32 32" fill="none" xmlns="http://www.w3.org/2000/svg">
    <rect width="32" height="32" rx="16"/>
    <path fill-rule="evenodd" clip-rule="evenodd" d="M28.8012 25.6H26.9998H16.002C10.699 25.6 6.40002 21.302 6.40002 16C6.40002 10.6981 10.699 6.40002 16.002 6.40002C21.305 6.40002 25.6039 10.6981 25.6039 16C25.6039 17.4276 25.2923 18.7823 24.7333 20H31.496C31.3017 20.7549 31.0537 21.4882 30.7563 22.1956H30.4049H23.3369C22.9449 22.659 22.5098 23.0848 22.0377 23.4667H29.1336H30.1546C29.7591 24.2149 29.306 24.928 28.8012 25.6ZM16.002 23.4667C20.1266 23.4667 23.4702 20.1237 23.4702 16C23.4702 11.8763 20.1266 8.53336 16.002 8.53336C11.8774 8.53336 8.53379 11.8763 8.53379 16C8.53379 20.1237 11.8774 23.4667 16.002 23.4667ZM21.3364 16C21.3364 18.9455 18.9481 21.3334 16.002 21.3334C13.0559 21.3334 10.6676 18.9455 10.6676 16C10.6676 13.0545 13.0559 10.6667 16.002 10.6667C18.9481 10.6667 21.3364 13.0545 21.3364 16ZM19.2026 16C19.2026 17.7673 17.7697 19.2 16.002 19.2C14.2343 19.2 12.8013 17.7673 12.8013 16C12.8013 14.2327 14.2343 12.8 16.002 12.8C17.7697 12.8 19.2026 14.2327 19.2026 16Z" fill="white"/>

</svg>
