<svg width="32" height="33" viewBox="0 0 32 33" fill="none" xmlns="http://www.w3.org/2000/svg">
<rect y="0.5" width="32" height="32" rx="16"/>
<path d="M14.0606 6.26025H15.6121V9.35157H14.0606V6.26025Z" fill="white"/>
<path d="M14.0606 23.6489H15.6121V26.7403H14.0606V23.6489Z" fill="white"/>
<path d="M16.3878 6.26025H17.9394V9.35157H16.3878V6.26025Z" fill="white"/>
<path d="M16.3878 23.6489H17.9394V26.7403H16.3878V23.6489Z" fill="white"/>
<path fill-rule="evenodd" clip-rule="evenodd" d="M10.5663 11.4834C11.2298 10.6533 12.2192 10.1244 13.4613 10.1244H21.9975V11.4527H13.4613C12.6403 11.4527 12.0344 11.7872 11.6184 12.3076C11.1899 12.8437 10.9417 13.6087 10.9417 14.4638C10.9417 15.2536 11.2462 15.8577 11.7136 16.271C12.1892 16.6914 12.8685 16.9435 13.6494 16.9435H16.8987C16.8987 16.9435 16.8988 16.9435 16.8988 17.6077C16.8988 18.2718 16.8988 18.2718 16.8988 18.2718H13.6494C12.5815 18.2718 11.5715 17.9262 10.82 17.2618C10.0603 16.5902 9.59996 15.6224 9.59996 14.4638C9.59996 13.3705 9.91532 12.2978 10.5663 11.4834ZM11.7649 14.1981C11.7649 13.1339 12.6396 12.2764 13.712 12.2764H21.9975V13.6047H13.712C13.3747 13.6047 13.1066 13.8733 13.1066 14.1981C13.1066 14.2959 13.1621 14.4372 13.3311 14.5755C13.5003 14.7141 13.718 14.7915 13.9001 14.7915H17.7711C19.3102 14.7915 20.4838 15.2674 21.2733 16.0564C22.0566 16.8392 22.4 17.8687 22.4 18.8653C22.4 19.8336 22.1204 20.8508 21.3793 21.6304C20.6295 22.4192 19.4918 22.8761 17.9592 22.8761H10.2708V21.5478H17.9592C19.2176 21.5478 19.9649 21.1802 20.4023 20.7201C20.8484 20.2508 21.0583 19.5946 21.0583 18.8653C21.0583 18.1641 20.8181 17.4889 20.3202 16.9913C19.8284 16.4999 19.023 16.1198 17.7711 16.1198H13.9001C13.3773 16.1198 12.8628 15.9158 12.4761 15.5992C12.0892 15.2824 11.7649 14.7949 11.7649 14.1981ZM18.7516 18.568C18.6244 18.4679 18.1857 18.2718 16.8988 18.2718L16.8988 17.6077L16.8987 16.9435C18.22 16.9435 19.0734 17.1247 19.586 17.5277C20.1577 17.9772 20.1548 18.5768 20.1536 18.8337C20.1536 18.8449 20.1535 18.8554 20.1535 18.8653C20.1535 18.8751 20.1536 18.8857 20.1536 18.8969C20.1548 19.1538 20.1577 19.7533 19.586 20.2028C19.0734 20.6058 18.2201 20.787 16.8988 20.787H10.2708V19.4587H16.8988C18.1857 19.4587 18.6244 19.2626 18.7516 19.1626C18.7542 19.1606 18.7566 19.1587 18.759 19.1569C18.7968 19.1281 18.8118 19.1166 18.8118 18.8653C18.8118 18.6139 18.7968 18.6024 18.759 18.5736C18.7566 18.5718 18.7542 18.57 18.7516 18.568Z" fill="white"/>
<path fill-rule="evenodd" clip-rule="evenodd" d="M10.7071 6.73238C10.8739 7.00604 10.7863 7.36253 10.5116 7.5286C7.4631 9.37162 5.43027 12.7008 5.43027 16.5003C5.43027 20.2997 7.4631 23.6289 10.5116 25.4719C10.7863 25.638 10.8739 25.9945 10.7071 26.2681C10.5404 26.5418 10.1826 26.629 9.90791 26.4629C6.52726 24.4191 4.26663 20.7225 4.26663 16.5003C4.26663 12.278 6.52726 8.58139 9.90791 6.53757C10.1826 6.37149 10.5404 6.45871 10.7071 6.73238ZM21.5142 6.85422C21.6871 6.58438 22.0468 6.50525 22.3176 6.67748C25.5728 8.74726 27.7333 12.3726 27.7333 16.5003C27.7333 20.6279 25.5728 24.2532 22.3176 26.323C22.0468 26.4953 21.6871 26.4161 21.5142 26.1463C21.3413 25.8764 21.4207 25.5181 21.6916 25.3459C24.6269 23.4794 26.5697 20.2146 26.5697 16.5003C26.5697 12.7859 24.6269 9.52108 21.6916 7.65465C21.4207 7.48243 21.3413 7.12406 21.5142 6.85422Z" fill="white"/>

</svg>
