<svg width="32" height="33" viewBox="0 0 32 33" fill="none" xmlns="http://www.w3.org/2000/svg">
<path d="M0 16.5C0 7.66344 7.16344 0.5 16 0.5C24.8366 0.5 32 7.66344 32 16.5C32 25.3366 24.8366 32.5 16 32.5C7.16344 32.5 0 25.3366 0 16.5Z"/>
<path d="M11.8571 14.7978L16 10.6548L20.1451 14.7999L22.5557 12.3892L16 5.8335L9.44639 12.3871L11.8571 14.7978Z" fill="white"/>
<path d="M18.4448 16.498H18.4459L16 14.0532L14.192 15.8602L13.984 16.0682L13.5563 16.497L13.552 16.5002L13.5563 16.5034L15.9989 18.9471L18.4459 16.5012L18.4469 16.5002L18.4448 16.4991V16.498Z" fill="white"/>
<path d="M11.8571 18.2026L9.44319 20.61L9.44639 20.6132L16 27.1668L22.5557 20.6111V20.61L20.1451 18.1994L16 22.3455L11.8571 18.2026Z" fill="white"/>
<path d="M5.33333 16.5002L7.74399 18.9108L10.1547 16.5002L7.74399 14.0895L5.33333 16.5002Z" fill="white"/>
<path d="M21.8453 16.5002L24.256 18.9108L26.6667 16.5002L24.256 14.0895L21.8453 16.5002Z" fill="white"/>

</svg>
