<svg width="32" height="33" viewBox="0 0 32 33" fill="none" xmlns="http://www.w3.org/2000/svg">
<rect y="0.5" width="32" height="32" rx="16"/>
<path fill-rule="evenodd" clip-rule="evenodd" d="M28.8012 26.0999H26.9998H16.002C10.6989 26.0999 6.39999 21.8018 6.39999 16.4999C6.39999 11.198 10.6989 6.8999 16.002 6.8999C21.305 6.8999 25.6039 11.198 25.6039 16.4999C25.6039 17.9274 25.2923 19.2822 24.7333 20.4999H31.4959C31.3016 21.2548 31.0536 21.9881 30.7563 22.6955H30.4049H23.3368C22.9449 23.1589 22.5097 23.5847 22.0377 23.9666H29.1336H30.1546C29.7591 24.7148 29.306 25.4279 28.8012 26.0999ZM16.002 23.9666C20.1265 23.9666 23.4701 20.6236 23.4701 16.4999C23.4701 12.3762 20.1265 9.03324 16.002 9.03324C11.8774 9.03324 8.53376 12.3762 8.53376 16.4999C8.53376 20.6236 11.8774 23.9666 16.002 23.9666ZM21.3364 16.4999C21.3364 19.4454 18.9481 21.8332 16.002 21.8332C13.0558 21.8332 10.6675 19.4454 10.6675 16.4999C10.6675 13.5544 13.0558 11.1666 16.002 11.1666C18.9481 11.1666 21.3364 13.5544 21.3364 16.4999ZM19.2026 16.4999C19.2026 18.2672 17.7696 19.6999 16.002 19.6999C14.2343 19.6999 12.8013 18.2672 12.8013 16.4999C12.8013 14.7326 14.2343 13.2999 16.002 13.2999C17.7696 13.2999 19.2026 14.7326 19.2026 16.4999Z" fill="white"/>

</svg>
